<svg xmlns="http://www.w3.org/2000/svg" xmlns:xlink="http://www.w3.org/1999/xlink" width="540" height="485"><defs><filter id="prefix__b" width="131.1%" height="134.6%" x="-15.6%" y="-12.4%" filterUnits="objectBoundingBox"><feOffset dy="24" in="SourceAlpha" result="shadowOffsetOuter1"/><feGaussianBlur in="shadowOffsetOuter1" result="shadowBlurOuter1" stdDeviation="24"/><feColorMatrix in="shadowBlurOuter1" values="0 0 0 0 0 0 0 0 0 0.68627451 0 0 0 0 0.8 0 0 0 0.24 0"/></filter><filter id="prefix__f" width="144.8%" height="188.8%" x="-22.4%" y="-31.7%" filterUnits="objectBoundingBox"><feOffset dy="8" in="SourceAlpha" result="shadowOffsetOuter1"/><feGaussianBlur in="shadowOffsetOuter1" result="shadowBlurOuter1" stdDeviation="8"/><feColorMatrix in="shadowBlurOuter1" values="0 0 0 0 0 0 0 0 0 0.68627451 0 0 0 0 0.8 0 0 0 0.2 0"/></filter><filter id="prefix__h" width="112.6%" height="125.8%" x="-6.3%" y="-9.2%" filterUnits="objectBoundingBox"><feOffset dy="8" in="SourceAlpha" result="shadowOffsetOuter1"/><feGaussianBlur in="shadowOffsetOuter1" result="shadowBlurOuter1" stdDeviation="8"/><feColorMatrix in="shadowBlurOuter1" values="0 0 0 0 0 0 0 0 0 0.68627451 0 0 0 0 0.8 0 0 0 0.2 0"/></filter><filter id="prefix__j" width="101.2%" height="115.5%" x="-.6%" y="-3.9%" filterUnits="objectBoundingBox"><feOffset dy="2" in="SourceAlpha" result="shadowOffsetOuter1"/><feGaussianBlur in="shadowOffsetOuter1" result="shadowBlurOuter1" stdDeviation=".5"/><feColorMatrix in="shadowBlurOuter1" values="0 0 0 0 0.823529412 0 0 0 0 0.854901961 0 0 0 0 0.858823529 0 0 0 0.6 0"/></filter><filter id="prefix__l" width="101.2%" height="104.9%" x="-.6%" y="-1.2%" filterUnits="objectBoundingBox"><feOffset dy="2" in="SourceAlpha" result="shadowOffsetOuter1"/><feGaussianBlur in="shadowOffsetOuter1" result="shadowBlurOuter1" stdDeviation=".5"/><feColorMatrix in="shadowBlurOuter1" values="0 0 0 0 0.823529412 0 0 0 0 0.854901961 0 0 0 0 0.858823529 0 0 0 0.6 0"/></filter><filter id="prefix__o" width="144.8%" height="188.8%" x="-22.4%" y="-31.7%" filterUnits="objectBoundingBox"><feOffset dy="8" in="SourceAlpha" result="shadowOffsetOuter1"/><feGaussianBlur in="shadowOffsetOuter1" result="shadowBlurOuter1" stdDeviation="8"/><feColorMatrix in="shadowBlurOuter1" values="0 0 0 0 0 0 0 0 0 0.68627451 0 0 0 0 0.8 0 0 0 0.2 0"/></filter><path id="prefix__a" d="M4.854 0h530.292A4.852 4.852 0 01540 4.85v475.3a4.852 4.852 0 01-4.854 4.85H4.854A4.852 4.852 0 010 480.15V4.85A4.852 4.852 0 014.854 0z"/><path id="prefix__e" d="M4.854 0h115.28a4.852 4.852 0 014.855 4.85V58.2a4.852 4.852 0 01-4.854 4.85H4.854A4.852 4.852 0 010 58.2V4.85A4.852 4.852 0 014.854 0z"/><path id="prefix__i" d="M4.854 0h433.213a4.852 4.852 0 014.854 4.85v207.338a4.852 4.852 0 01-4.854 4.85H4.854A4.853 4.853 0 010 212.188V4.85A4.852 4.852 0 014.854 0z"/><path id="prefix__k" d="M4.854 0h394.382a4.852 4.852 0 014.854 4.85v29.1a4.852 4.852 0 01-4.854 4.85H4.854A4.852 4.852 0 010 33.95V4.85A4.852 4.852 0 014.854 0z"/><path id="prefix__m" d="M24.27 75.175h394.382a4.852 4.852 0 014.854 4.85v112.762c0 2.68-2.174 4.85-4.854 4.85H24.27a4.851 4.851 0 01-4.854-4.85V80.025a4.852 4.852 0 014.854-4.85z"/><path id="prefix__n" d="M4.854 0h115.28a4.852 4.852 0 014.855 4.85V58.2a4.852 4.852 0 01-4.854 4.85H4.854A4.852 4.852 0 010 58.2V4.85A4.852 4.852 0 014.854 0z"/><linearGradient id="prefix__c" x1="50%" x2="50%" y1="0%" y2="100%"><stop offset="0%" stop-color="#B1E6EF"/><stop offset="100%" stop-color="#00AFCC"/></linearGradient></defs><g fill="none" fill-rule="evenodd"><mask id="prefix__d" fill="#fff"><use xlink:href="#prefix__a"/></mask><use fill="#000" filter="url(#prefix__b)" xlink:href="#prefix__a"/><use fill="url(#prefix__c)" xlink:href="#prefix__a"/><path fill="#032128" fill-rule="nonzero" d="M184.321 143.903c.47.235.85.616 1.086 1.085l10.635 21.253a2.424 2.424 0 01-2.171 3.509h-8.208v105.488h-4.854v-105.49l-8.207.002a2.427 2.427 0 01-2.171-3.51l10.634-21.252a2.429 2.429 0 013.256-1.085zM355.551 67.9h4.854l-.002 93.362h8.21a2.426 2.426 0 012.17 3.51l-10.635 21.253a2.428 2.428 0 01-4.341 0l-10.635-21.253a2.424 2.424 0 012.17-3.51h8.207l.002-93.362z" mask="url(#prefix__d)" opacity=".3"/><g mask="url(#prefix__d)"><g transform="translate(121.348 48.5)"><mask id="prefix__g" fill="#fff"><use xlink:href="#prefix__e"/></mask><use fill="#000" filter="url(#prefix__f)" xlink:href="#prefix__e"/><use fill="#FFF" xlink:href="#prefix__e"/><path fill="#DBE1E2" d="M108 41.225a2.426 2.426 0 012.427 2.425v2.425A2.426 2.426 0 01108 48.5H16.989a2.426 2.426 0 01-2.427-2.425V43.65a2.425 2.425 0 012.427-2.425H108zM78.876 29.1a2.426 2.426 0 012.427 2.425v2.425a2.425 2.425 0 01-2.427 2.425H16.99a2.426 2.426 0 01-2.427-2.425v-2.425A2.425 2.425 0 0116.99 29.1h61.887z" mask="url(#prefix__g)"/><rect width="77.663" height="7.275" x="14.562" y="65.475" fill="#E2E5EC" mask="url(#prefix__g)" rx="2"/><g mask="url(#prefix__g)"><g transform="translate(7.28 7.275)"><ellipse cx="3.64" cy="3.638" fill="#FF8A84" rx="3.64" ry="3.638"/><ellipse cx="14.562" cy="3.638" fill="#FFCE7A" rx="3.64" ry="3.638"/><ellipse cx="25.483" cy="3.638" fill="#7CC97C" rx="3.64" ry="3.638"/></g></g><rect width="108" height="7.275" x="180.809" y="25.462" fill="#E2E5EC" rx="2"/><rect width="64.315" height="7.275" x="180.809" y="37.587" fill="#E2E5EC" rx="2"/><rect width="86.157" height="7.275" x="180.809" y="49.712" fill="#E2E5EC" rx="2"/></g></g><g mask="url(#prefix__d)"><g transform="translate(48.54 219.463)"><use fill="#000" filter="url(#prefix__h)" xlink:href="#prefix__i"/><use fill="#F7F9F9" xlink:href="#prefix__i"/></g><g transform="translate(67.956 238.863)"><use fill="#000" filter="url(#prefix__j)" xlink:href="#prefix__k"/><use fill="#FFF" xlink:href="#prefix__k"/><g transform="translate(15.775 15.762)"><ellipse cx="3.64" cy="3.638" fill="#FF8A84" rx="3.64" ry="3.638"/><ellipse cx="14.562" cy="3.638" fill="#FFCE7A" rx="3.64" ry="3.638"/><ellipse cx="25.483" cy="3.638" fill="#7CC97C" rx="3.64" ry="3.638"/></g><path fill="#F7F9F9" d="M80.09 9.7H324a4.852 4.852 0 014.854 4.85v9.7A4.852 4.852 0 01324 29.1H80.09a4.852 4.852 0 01-4.854-4.85v-9.7A4.852 4.852 0 0180.09 9.7z"/><g fill="#5BC17F" fill-rule="nonzero" transform="translate(162.607 15.762)"><path d="M4.247 2.88h-.202v-.758c0-.836-.726-1.516-1.618-1.516-.892 0-1.618.68-1.618 1.516v.758H.607c-.335 0-.607.255-.607.568V6.1c0 .314.272.569.607.569h3.64c.335 0 .607-.255.607-.569V3.448c0-.313-.272-.568-.607-.568zm-2.899-.758c0-.557.484-1.01 1.079-1.01s1.079.453 1.079 1.01v.758H1.348v-.758z"/><rect width="70.382" height="4.85" x="9.708" y="1.212" opacity=".2" rx="1"/></g></g><g transform="translate(48.54 219.463)"><use fill="#000" filter="url(#prefix__l)" xlink:href="#prefix__m"/><use fill="#FFF" xlink:href="#prefix__m"/></g><path fill="#DBE1E2" d="M205.08 384.969a2.426 2.426 0 012.426 2.425v4.85a2.425 2.425 0 01-2.427 2.425h-46.112a2.426 2.426 0 01-2.427-2.425v-4.85a2.426 2.426 0 012.427-2.425h46.112zm112.853 0a2.426 2.426 0 012.427 2.425v4.85a2.425 2.425 0 01-2.427 2.425h-21.842a2.426 2.426 0 01-2.427-2.425v-4.85a2.425 2.425 0 012.427-2.425h21.842zm37.618-16.975a2.426 2.426 0 012.427 2.425v4.85a2.425 2.425 0 01-2.427 2.425H158.967a2.426 2.426 0 01-2.427-2.425v-4.85a2.426 2.426 0 012.427-2.425h196.584zm-61.887-16.975a2.426 2.426 0 012.427 2.425v4.85a2.426 2.426 0 01-2.427 2.425H158.967a2.426 2.426 0 01-2.427-2.425v-4.85a2.426 2.426 0 012.427-2.425h134.697zm87.37-16.975a2.426 2.426 0 012.427 2.425v4.85a2.425 2.425 0 01-2.427 2.425H258.473a2.426 2.426 0 01-2.427-2.425v-4.85a2.425 2.425 0 012.427-2.425h122.561zm-48.539-16.975a2.426 2.426 0 012.427 2.425v4.85a2.426 2.426 0 01-2.427 2.425H158.967a2.426 2.426 0 01-2.427-2.425v-4.85a2.426 2.426 0 012.427-2.425h173.528z"/><path fill="#F7F9F9" d="M281.529 384.969a2.426 2.426 0 012.427 2.425v4.85a2.426 2.426 0 01-2.427 2.425H219.64a2.426 2.426 0 01-2.427-2.425v-4.85a2.426 2.426 0 012.427-2.425h61.888zm-37.619-50.925a2.426 2.426 0 012.427 2.425v4.85a2.426 2.426 0 01-2.427 2.425h-84.943a2.426 2.426 0 01-2.427-2.425v-4.85a2.426 2.426 0 012.427-2.425h84.944z"/><path fill="#F1A06F" fill-rule="nonzero" d="M137.124 309.188c.67 0 1.214.543 1.214 1.213v2.185c0 .67-.544 1.212-1.214 1.212h-1.213c-5.26 0-9.544 3.975-9.703 8.934l-.005.287v65.7c0 4.997 4.184 9.065 9.405 9.217l.303.004h1.213c.67 0 1.214.543 1.214 1.213v2.185c0 .67-.544 1.213-1.214 1.213h-1.213c-7.919 0-14.361-6.004-14.557-13.48l-.005-.352V358.9h-3.64c-.67 0-1.214-.542-1.214-1.212v-2.425c0-.67.543-1.213 1.214-1.213h3.64v-31.03c0-7.522 6.32-13.641 14.192-13.828l.37-.004h1.213zm266.967 0l.37.004c7.748.184 13.993 6.116 14.187 13.476l.004.351v31.032h3.64c.623 0 1.136.468 1.206 1.07l.008.142v2.425c0 .622-.468 1.134-1.072 1.204l-.141.008h-3.64v29.819l-.005.352c-.194 7.36-6.44 13.292-14.187 13.475l-.37.005h-1.214a1.214 1.214 0 01-1.205-1.072l-.008-.141v-2.185c0-.622.468-1.135 1.072-1.205l.141-.008h1.214l.302-.004c5.12-.15 9.241-4.062 9.4-8.924l.005-.293v-65.7l-.004-.287c-.157-4.862-4.277-8.777-9.395-8.929l-.308-.005h-1.214a1.213 1.213 0 01-1.205-1.07l-.008-.142V310.4c0-.621.468-1.134 1.072-1.204l.141-.008h1.214z"/></g><g mask="url(#prefix__d)"><g transform="translate(294.876 48.5)"><mask id="prefix__p" fill="#fff"><use xlink:href="#prefix__n"/></mask><use fill="#000" filter="url(#prefix__o)" xlink:href="#prefix__n"/><use fill="#FFF" xlink:href="#prefix__n"/><path fill="#DBE1E2" d="M69.169 41.225a2.426 2.426 0 012.427 2.425v2.425a2.426 2.426 0 01-2.427 2.425h-52.18a2.426 2.426 0 01-2.427-2.425V43.65a2.425 2.425 0 012.427-2.425h52.18zM108 29.1a2.426 2.426 0 012.427 2.425v2.425A2.426 2.426 0 01108 36.375H16.989a2.426 2.426 0 01-2.427-2.425v-2.425a2.425 2.425 0 012.427-2.425H108z" mask="url(#prefix__p)"/><g mask="url(#prefix__p)"><g transform="translate(7.28 7.275)"><ellipse cx="3.64" cy="3.638" fill="#FF8A84" rx="3.64" ry="3.638"/><ellipse cx="14.562" cy="3.638" fill="#FFCE7A" rx="3.64" ry="3.638"/><ellipse cx="25.483" cy="3.638" fill="#7CC97C" rx="3.64" ry="3.638"/></g></g></g></g></g></svg>