<svg xmlns="http://www.w3.org/2000/svg" xmlns:xlink="http://www.w3.org/1999/xlink" width="540" height="485"><defs><filter id="prefix__a" width="131.1%" height="134.6%" x="-15.6%" y="-12.4%" filterUnits="objectBoundingBox"><feOffset dy="24" in="SourceAlpha" result="shadowOffsetOuter1"/><feGaussianBlur in="shadowOffsetOuter1" result="shadowBlurOuter1" stdDeviation="24"/><feColorMatrix in="shadowBlurOuter1" values="0 0 0 0 0.945098039 0 0 0 0 0.62745098 0 0 0 0 0.435294118 0 0 0 0.24 0"/></filter><filter id="prefix__d" width="112.6%" height="215.5%" x="-6.3%" y="-41.2%" filterUnits="objectBoundingBox"><feOffset dy="8" in="SourceAlpha" result="shadowOffsetOuter1"/><feGaussianBlur in="shadowOffsetOuter1" result="shadowBlurOuter1" stdDeviation="8"/><feColorMatrix in="shadowBlurOuter1" values="0 0 0 0 0.945098039 0 0 0 0 0.62745098 0 0 0 0 0.435294118 0 0 0 0.2 0"/></filter><filter id="prefix__f" width="112.7%" height="117%" x="-6.3%" y="-6.1%" filterUnits="objectBoundingBox"><feOffset dy="8" in="SourceAlpha" result="shadowOffsetOuter1"/><feGaussianBlur in="shadowOffsetOuter1" result="shadowBlurOuter1" stdDeviation="8"/><feColorMatrix in="shadowBlurOuter1" values="0 0 0 0 0.945098039 0 0 0 0 0.62745098 0 0 0 0 0.435294118 0 0 0 0.2 0"/></filter><filter id="prefix__h" width="101.2%" height="102.1%" x="-.6%" y="-.5%" filterUnits="objectBoundingBox"><feOffset dy="2" in="SourceAlpha" result="shadowOffsetOuter1"/><feGaussianBlur in="shadowOffsetOuter1" result="shadowBlurOuter1" stdDeviation=".5"/><feColorMatrix in="shadowBlurOuter1" values="0 0 0 0 0.823529412 0 0 0 0 0.854901961 0 0 0 0 0.858823529 0 0 0 0.6 0"/></filter><path id="prefix__b" d="M4.854 0h530.292A4.852 4.852 0 01540 4.85v475.3a4.852 4.852 0 01-4.854 4.85H4.854A4.852 4.852 0 010 480.15V4.85A4.852 4.852 0 014.854 0z"/><path id="prefix__e" d="M4.854 0h433.213a4.852 4.852 0 014.854 4.85v38.8a4.852 4.852 0 01-4.854 4.85H4.854A4.852 4.852 0 010 43.65V4.85A4.852 4.852 0 014.854 0z"/><path id="prefix__g" d="M53.393 106.7h432a4.852 4.852 0 014.854 4.85v320.1a4.852 4.852 0 01-4.854 4.85h-432a4.852 4.852 0 01-4.854-4.85v-320.1a4.852 4.852 0 014.854-4.85z"/><path id="prefix__i" d="M72.809 281.3l124.417.001c4.324 32.42 30.014 58.088 62.46 62.408v68.541a4.852 4.852 0 01-4.855 4.85H72.81a4.852 4.852 0 01-4.854-4.85v-126.1a4.852 4.852 0 014.854-4.85zm393.169 0a4.851 4.851 0 014.853 4.85v126.1a4.851 4.851 0 01-4.853 4.85H283.955a4.852 4.852 0 01-4.854-4.85v-68.541c32.446-4.32 58.136-29.99 62.46-62.408l124.417-.001zm-196.585-63.05c29.489 0 53.394 23.886 53.394 53.35 0 29.464-23.905 53.35-53.394 53.35-29.488 0-53.393-23.886-53.393-53.35 0-29.464 23.905-53.35 53.393-53.35zm-14.562-92.15a4.852 4.852 0 014.854 4.85v68.541c-32.445 4.32-58.136 29.99-62.46 62.409H72.81a4.852 4.852 0 01-4.854-4.85v-126.1a4.852 4.852 0 014.854-4.85h182.022zm211.147 0a4.851 4.851 0 014.853 4.85v126.1a4.851 4.851 0 01-4.853 4.85H341.56c-4.323-32.42-30.013-58.089-62.46-62.409V130.95a4.852 4.852 0 014.854-4.85h182.023z"/><linearGradient id="prefix__c" x1="50%" x2="50%" y1="0%" y2="100%"><stop offset="0%" stop-color="#FBDFCF"/><stop offset="100%" stop-color="#F1A06F"/></linearGradient><linearGradient id="prefix__j" x1="24.483%" x2="100%" y1="44.052%" y2="44.052%"><stop offset="0%" stop-color="#F7F9F9"/><stop offset="100%" stop-color="#DBE1E2"/></linearGradient></defs><g fill="none" fill-rule="evenodd"><use fill="#000" filter="url(#prefix__a)" xlink:href="#prefix__b"/><use fill="url(#prefix__c)" xlink:href="#prefix__b"/><g transform="translate(48.54 48.5)"><use fill="#000" filter="url(#prefix__d)" xlink:href="#prefix__e"/><use fill="#FFF" xlink:href="#prefix__e"/><path fill="#DBE1E2" d="M415.011 13.338c6.032 0 10.922 4.885 10.922 10.912 0 6.027-4.89 10.913-10.922 10.913-6.031 0-10.921-4.886-10.921-10.913s4.89-10.912 10.921-10.912zM77.663 19.4a2.426 2.426 0 012.427 2.425v4.85a2.426 2.426 0 01-2.427 2.425H63.1a2.426 2.426 0 01-2.427-2.425v-4.85A2.426 2.426 0 0163.1 19.4h14.562zm32.764 0a2.426 2.426 0 012.427 2.425v4.85a2.426 2.426 0 01-2.427 2.425H95.865a2.426 2.426 0 01-2.427-2.425v-4.85a2.426 2.426 0 012.427-2.425h14.562zm33.977 0a2.426 2.426 0 012.427 2.425v4.85a2.425 2.425 0 01-2.427 2.425h-14.561a2.426 2.426 0 01-2.427-2.425v-4.85a2.425 2.425 0 012.427-2.425h14.561zm33.978 0a2.426 2.426 0 012.427 2.425v4.85a2.426 2.426 0 01-2.427 2.425H163.82a2.426 2.426 0 01-2.427-2.425v-4.85a2.426 2.426 0 012.427-2.425h14.562zm33.978 0a2.426 2.426 0 012.427 2.425v4.85a2.426 2.426 0 01-2.427 2.425h-14.562a2.426 2.426 0 01-2.427-2.425v-4.85a2.425 2.425 0 012.427-2.425h14.562zm33.977 0a2.426 2.426 0 012.427 2.425v4.85a2.426 2.426 0 01-2.427 2.425h-14.562a2.426 2.426 0 01-2.427-2.425v-4.85a2.426 2.426 0 012.427-2.425h14.562zm33.978 0a2.426 2.426 0 012.427 2.425v4.85a2.426 2.426 0 01-2.427 2.425h-14.562a2.426 2.426 0 01-2.427-2.425v-4.85a2.425 2.425 0 012.427-2.425h14.562z"/><path fill="#00B1D0" d="M22.449 16.975h8.495c.335 0 .607.271.607.606v8.488a.606.606 0 01-.607.606H22.45a.606.606 0 01-.607-.606v-8.488c0-.335.272-.606.607-.606z"/><path fill="#FE9C65" d="M17.596 21.825h8.493c.335 0 .607.271.607.606v8.488a.606.606 0 01-.607.606h-8.493a.606.606 0 01-.607-.606v-8.488c0-.335.272-.606.607-.606z"/></g><use fill="#000" filter="url(#prefix__f)" xlink:href="#prefix__g"/><use fill="#F7F9F9" xlink:href="#prefix__g"/><use fill="#000" filter="url(#prefix__h)" xlink:href="#prefix__i"/><use fill="#FFF" xlink:href="#prefix__i"/><g fill="#F1A06F"><path d="M86.157 317.675h106.787a3.64 3.64 0 013.64 3.638 3.64 3.64 0 01-3.64 3.637H86.157a3.64 3.64 0 01-3.64-3.638 3.64 3.64 0 013.64-3.637z" opacity=".3"/><path d="M86.157 317.675h33.978a3.64 3.64 0 013.64 3.638 3.64 3.64 0 01-3.64 3.637H86.157a3.64 3.64 0 01-3.64-3.638 3.64 3.64 0 013.64-3.637z"/></g><path fill="#DBE1E2" d="M84.944 339.5h4.854a2.426 2.426 0 012.427 2.425v4.85a2.426 2.426 0 01-2.427 2.425h-4.854a2.426 2.426 0 01-2.427-2.425v-4.85a2.426 2.426 0 012.427-2.425z"/><path fill="#DBE1E2" d="M99.506 339.5h21.841a2.426 2.426 0 012.427 2.425v4.85a2.425 2.425 0 01-2.427 2.425h-21.84a2.426 2.426 0 01-2.427-2.425v-4.85a2.425 2.425 0 012.427-2.425z" opacity=".2"/><path fill="#DBE1E2" d="M84.944 378.3h4.854a2.426 2.426 0 012.427 2.425v4.85A2.426 2.426 0 0189.798 388h-4.854a2.426 2.426 0 01-2.427-2.425v-4.85a2.426 2.426 0 012.427-2.425z"/><path fill="#DBE1E2" d="M99.506 378.3h13.348a2.426 2.426 0 012.427 2.425v4.85a2.426 2.426 0 01-2.427 2.425H99.507a2.426 2.426 0 01-2.427-2.425v-4.85a2.425 2.425 0 012.427-2.425z" opacity=".2"/><path fill="#DBE1E2" d="M84.944 300.7h4.854a2.426 2.426 0 012.427 2.425v4.85a2.427 2.427 0 01-2.428 2.425h-4.853a2.426 2.426 0 01-2.427-2.425v-4.85a2.426 2.426 0 012.427-2.425z"/><path fill="#DBE1E2" d="M99.506 300.7h15.775a2.426 2.426 0 012.427 2.425v4.85a2.426 2.426 0 01-2.427 2.425H99.506a2.426 2.426 0 01-2.427-2.425v-4.85a2.425 2.425 0 012.427-2.425z" opacity=".2"/><path fill="#00AFCC" d="M86.157 356.475h155.326a3.64 3.64 0 013.64 3.638 3.64 3.64 0 01-3.64 3.637H86.157a3.639 3.639 0 110-7.275z" opacity=".3"/><path fill="#00AFCC" d="M86.157 356.475h98.293a3.64 3.64 0 013.64 3.638 3.64 3.64 0 01-3.64 3.637H86.157a3.639 3.639 0 110-7.275z"/><path fill="#F7F9F9" d="M86.157 395.275h155.326a3.64 3.64 0 013.64 3.638 3.64 3.64 0 01-3.64 3.637H86.157a3.64 3.64 0 01-3.64-3.638 3.64 3.64 0 013.64-3.637z"/><path fill="#DBE1E2" d="M86.157 395.275h50.967a3.64 3.64 0 013.64 3.638 3.64 3.64 0 01-3.64 3.637H86.157a3.64 3.64 0 01-3.64-3.638 3.64 3.64 0 013.64-3.637zm365.259-99.425a4.852 4.852 0 014.854 4.85v42.378a1.214 1.214 0 01-1.96.956l-9.162-7.145a4.858 4.858 0 00-2.987-1.027h-80.543a4.852 4.852 0 01-4.854-4.85V300.7a4.852 4.852 0 014.854-4.85h89.798zm-57.034 26.675h-26.697c-.622 0-1.135.468-1.205 1.071l-.008.142v1.212c0 .622.468 1.134 1.072 1.204l.141.009h26.697c.622 0 1.135-.469 1.205-1.072l.009-.141v-1.212c0-.622-.469-1.135-1.072-1.205l-.142-.008zm12.135-8.487h-38.832c-.622 0-1.135.468-1.205 1.07l-.008.142v1.213c0 .621.468 1.134 1.072 1.204l.141.008h38.832c.622 0 1.135-.468 1.205-1.071l.008-.141v-1.213c0-.622-.468-1.134-1.072-1.204l-.141-.008zm24.27 0h-14.562c-.623 0-1.136.468-1.206 1.07l-.008.142v1.213c0 .621.469 1.134 1.072 1.204l.142.008h14.562c.622 0 1.135-.468 1.205-1.071l.008-.141v-1.213c0-.622-.468-1.134-1.072-1.204l-.141-.008zm14.561-8.488h-77.663c-.622 0-1.135.468-1.205 1.071l-.008.142v1.212c0 .622.468 1.134 1.072 1.204l.141.009h77.663c.623 0 1.136-.469 1.206-1.072l.008-.141v-1.213c0-.621-.469-1.134-1.072-1.204l-.142-.008z"/><path fill="#F7F9F9" d="M298.517 352.837h137.124a4.851 4.851 0 014.853 4.85v28.847l-6.927 6.316H307.03c-1.14 0-2.242.4-3.115 1.13l-8.26 6.904a1.214 1.214 0 01-1.992-.93v-42.267a4.852 4.852 0 014.854-4.85z"/><path fill="#DBE1E2" d="M368.899 371.025c.67 0 1.213.542 1.213 1.212v1.213c0 .67-.543 1.212-1.213 1.212h-41.258c-.67 0-1.214-.543-1.214-1.212v-1.213c0-.67.543-1.212 1.214-1.212h41.258zm60.674-8.488c.67 0 1.214.543 1.214 1.213v1.212c0 .67-.544 1.213-1.214 1.213H304.584c-.67 0-1.213-.543-1.213-1.213v-1.213c0-.67.543-1.212 1.213-1.212h124.99z"/><path fill="#DBE1E2" d="M304.584 371.025h13.349c.67 0 1.213.542 1.213 1.212v1.213c0 .67-.543 1.212-1.213 1.212h-13.35c-.67 0-1.213-.543-1.213-1.212v-1.213c0-.67.543-1.212 1.213-1.212zm0 8.487h98.292c.67 0 1.214.543 1.214 1.212v1.213c0 .67-.543 1.212-1.214 1.212h-98.292c-.67 0-1.213-.542-1.213-1.212v-1.213c0-.67.543-1.212 1.213-1.212z" opacity=".5"/><path fill="url(#prefix__j)" d="M460.517 244.925a.606.606 0 110 1.212H357.37a.606.606 0 110-1.212h103.146zm0-20.613a.607.607 0 010 1.213H347.663a.606.606 0 110-1.213h112.854zm0-20.612a.606.606 0 110 1.212h-132.27a.606.606 0 110-1.212h132.27zm0-20.612a.606.606 0 110 1.212H289.416a.606.606 0 110-1.212h171.1z"/><path fill="#DBE1E2" d="M171.101 234.013c.67 0 1.214.543 1.214 1.212v2.425c0 .67-.544 1.213-1.214 1.213h-23.056c-.67 0-1.213-.543-1.213-1.213v-2.425c0-.67.543-1.212 1.213-1.212h23.056zm-32.764 0c.67 0 1.214.543 1.214 1.212v2.425c0 .67-.544 1.213-1.214 1.213h-20.63c-.67 0-1.213-.543-1.213-1.213v-2.425c0-.67.544-1.212 1.214-1.212h20.63zm26.697-42.438c.67 0 1.213.543 1.213 1.213v2.425c0 .67-.543 1.212-1.213 1.212h-12.135c-.67 0-1.214-.542-1.214-1.212v-2.425c0-.67.544-1.212 1.214-1.212h12.135zm35.19 0c.671 0 1.214.543 1.214 1.213v2.425c0 .67-.543 1.212-1.213 1.212h-25.483c-.67 0-1.214-.542-1.214-1.212v-2.425c0-.67.543-1.212 1.214-1.212h25.483zm-57.033 0c.67 0 1.214.543 1.214 1.213v2.425c0 .67-.544 1.212-1.214 1.212h-25.483c-.67 0-1.214-.542-1.214-1.212v-2.425c0-.67.544-1.212 1.214-1.212h25.483zm58.247-42.437c.67 0 1.214.543 1.214 1.213v2.425c0 .67-.544 1.212-1.214 1.212h-46.112c-.67 0-1.214-.543-1.214-1.213v-2.424c0-.67.544-1.212 1.214-1.212h46.112zm-58.247 0c.67 0 1.214.543 1.214 1.213v2.425c0 .67-.544 1.212-1.214 1.212h-25.483c-.67 0-1.214-.543-1.214-1.213v-2.424c0-.67.544-1.212 1.214-1.212h25.483zm95.865 0c.67 0 1.214.543 1.214 1.213v2.425c0 .67-.544 1.212-1.214 1.212h-27.91c-.67 0-1.213-.543-1.213-1.213v-2.424c0-.67.543-1.212 1.213-1.212h27.91z"/><g fill="#F1A06F"><path d="M92.225 141.863c5.361 0 9.708 4.343 9.708 9.7 0 5.357-4.347 9.7-9.708 9.7-5.362 0-9.708-4.343-9.708-9.7 0-5.357 4.346-9.7 9.708-9.7z" opacity=".2"/><path fill-rule="nonzero" d="M92.528 156.413a.304.304 0 00.304-.303v-.91h.047c.933 0 1.794-.602 2.017-1.508a1.993 1.993 0 00-1.384-2.392l-2.205-.63c-.3-.085-.542-.325-.59-.634a.779.779 0 01.768-.898h1.4c.301 0 .597.095.842.267.12.085.284.072.388-.032l.434-.434a.305.305 0 00-.028-.456 2.659 2.659 0 00-1.636-.557h-.053v-.91a.304.304 0 00-.304-.303h-.607a.304.304 0 00-.303.303v.91h-.047c-.933 0-1.794.602-2.018 1.508a1.994 1.994 0 001.384 2.392l2.206.63c.3.085.542.325.59.634a.779.779 0 01-.769.898h-1.399c-.301 0-.597-.095-.842-.267a.303.303 0 00-.389.032l-.434.434a.307.307 0 00.029.457 2.656 2.656 0 001.636.556h.053v.91c0 .167.137.303.303.303h.607z"/></g><path fill="#F7F9F9" d="M200.832 212.188a.606.606 0 110 1.212H78.27a.606.606 0 110-1.212h122.562zm48.539-42.438a.607.607 0 010 1.213H78.27a.606.606 0 110-1.213h171.1z"/><path fill="#F1A06F" fill-rule="nonzero" d="M289.736 263.108a1.43 1.43 0 00-1.228-.743l-18.658-.347 3.517-23.788a1.432 1.432 0 00-.922-1.513 1.431 1.431 0 00-1.688.536l-23.337 39.24a1.417 1.417 0 00-.054 1.437c.245.454.716.741 1.232.75l18.38.342-2.87 23.836a1.435 1.435 0 002.625.924l22.962-39.243c.24-.386.28-.86.113-1.277l-.072-.154z"/><path fill="#00AFCC" d="M450.202 194a2.426 2.426 0 012.427 2.425v49.712h-9.708v-49.712a2.426 2.426 0 012.427-2.425h4.854zm-38.831 16.975a2.426 2.426 0 012.427 2.425v32.737h-9.708V213.4a2.425 2.425 0 012.427-2.425h4.854zm-38.832-13.338a2.426 2.426 0 012.427 2.425v46.075h-9.708v-46.075a2.426 2.426 0 012.427-2.425h4.854z"/><path fill="#F1A06F" d="M430.787 175.813a2.425 2.425 0 012.426 2.425v67.9h-9.707v-67.9a2.425 2.425 0 012.427-2.425h4.854zm-38.832 43.65a2.426 2.426 0 012.427 2.424v24.25h-9.708v-24.25a2.426 2.426 0 012.427-2.424h4.854z"/><path fill="#DBE1E2" d="M315.506 162.475c.67 0 1.213.543 1.213 1.213v2.425c0 .67-.543 1.212-1.213 1.212h-20.63c-.67 0-1.213-.543-1.213-1.212v-2.425c0-.67.543-1.213 1.213-1.213h20.63zm19.415 0c.67 0 1.214.543 1.214 1.213v2.425c0 .67-.543 1.212-1.214 1.212h-9.708c-.67 0-1.213-.543-1.213-1.212v-2.425c0-.67.543-1.213 1.213-1.213h9.708z"/><path fill="#00AFCC" d="M440.494 380.725c6.032 0 10.922 4.886 10.922 10.912 0 6.027-4.89 10.913-10.922 10.913-6.031 0-10.921-4.886-10.921-10.912 0-6.027 4.89-10.913 10.921-10.913zm3.436 6.373l-5.107 6.21-2.052-1.757a.789.789 0 00-1.108.086l-1.023 1.193a.771.771 0 00-.187.57c.016.21.112.4.272.537l3.88 3.323a.78.78 0 00.51.189l.07-.003a.786.786 0 00.539-.284l6.635-8.07a.774.774 0 00.175-.575.773.773 0 00-.283-.53l-1.215-.998a.788.788 0 00-1.106.109z"/><path fill="#F7F9F9" d="M92.225 184.3c5.361 0 9.708 4.343 9.708 9.7 0 5.357-4.347 9.7-9.708 9.7-5.362 0-9.708-4.343-9.708-9.7 0-5.357 4.346-9.7 9.708-9.7z"/><path fill="#A6B6B9" fill-rule="nonzero" d="M90.784 198.244a.228.228 0 00.227-.228v-1.288h3.413a.228.228 0 00.228-.227v-.455a.228.228 0 00-.228-.227h-3.413v-.713h2.183c1.552 0 2.671-1.082 2.671-2.693 0-1.61-1.119-2.657-2.67-2.657h-3.17a.228.228 0 00-.227.228v4.088h-.986a.228.228 0 00-.228.227v.58c0 .125.102.227.228.227h.986v.713h-.986a.228.228 0 00-.228.227v.455c0 .125.102.227.228.227h.986v1.288c0 .126.102.228.227.228h.759zm2.218-4.172h-1.99v-3.282h2.002c1.01 0 1.636.601 1.636 1.623s-.626 1.66-1.648 1.66z"/><g fill="#00AFCC"><path d="M92.225 225.525c5.361 0 9.708 4.343 9.708 9.7 0 5.357-4.347 9.7-9.708 9.7-5.362 0-9.708-4.343-9.708-9.7 0-5.357 4.346-9.7 9.708-9.7z" opacity=".1"/><path fill-rule="nonzero" d="M93.917 239.469c.462 0 .86-.08 1.09-.137.12-.03.195-.15.168-.269l-.123-.557a.23.23 0 00-.275-.172 3.835 3.835 0 01-.848.102c-1.241 0-2.218-.748-2.62-1.845h2.455a.225.225 0 00.222-.182l.095-.455a.226.226 0 00-.222-.272h-2.806a4.861 4.861 0 01-.011-.91h3.08a.227.227 0 00.223-.18l.096-.454a.226.226 0 00-.221-.275h-2.98c.399-1.107 1.375-1.857 2.655-1.857.279 0 .548.04.725.072.117.021.23-.05.261-.165l.15-.56a.227.227 0 00-.178-.283 5.266 5.266 0 00-.935-.089c-1.896 0-3.407 1.215-3.904 2.88h-.595a.228.228 0 00-.228.227v.455c0 .125.103.227.228.227h.438c-.023.3-.02.673.007.91h-.445a.228.228 0 00-.228.227v.455c0 .125.103.227.228.227h.61c.493 1.68 1.96 2.88 3.887 2.88z"/></g><path fill="#DBE1E2" d="M296.09 143.075h61.888a2.426 2.426 0 012.426 2.425v2.425a2.425 2.425 0 01-2.426 2.425H296.09a2.426 2.426 0 01-2.427-2.425V145.5a2.426 2.426 0 012.427-2.425z"/><path fill="#00AFCC" d="M393.169 164.9v13.338h12.074c-.61 6.127-5.783 10.912-12.074 10.912-6.702 0-12.135-5.429-12.135-12.125 0-6.583 5.25-11.94 11.795-12.12l.34-.005z"/><path fill="#F1A06F" d="M395.596 162.475c6.701 0 12.134 5.429 12.134 12.125v1.213h-12.134v-13.338z"/></g></svg>