<svg xmlns="http://www.w3.org/2000/svg" xmlns:xlink="http://www.w3.org/1999/xlink" width="540" height="485"><defs><path id="prefix__b" d="M4.854 0h530.292A4.852 4.852 0 01540 4.85v475.3a4.852 4.852 0 01-4.854 4.85H4.854A4.852 4.852 0 010 480.15V4.85A4.852 4.852 0 014.854 0z"/><path id="prefix__d" d="M4.854 0h433.213a4.852 4.852 0 014.854 4.85v358.9a4.852 4.852 0 01-4.854 4.85H4.854A4.852 4.852 0 010 363.75V4.85A4.852 4.852 0 014.854 0z"/><path id="prefix__h" d="M4.854 0H240.27a4.852 4.852 0 014.854 4.85v38.8a4.852 4.852 0 01-4.854 4.85H4.854A4.852 4.852 0 010 43.65V4.85A4.852 4.852 0 014.854 0z"/><path id="prefix__j" d="M4.854 0H240.27a4.852 4.852 0 014.854 4.85v38.8a4.852 4.852 0 01-4.854 4.85H4.854A4.852 4.852 0 010 43.65V4.85A4.852 4.852 0 014.854 0z"/><path id="prefix__l" d="M4.854 0H240.27a4.852 4.852 0 014.854 4.85v38.8a4.852 4.852 0 01-4.854 4.85H4.854A4.852 4.852 0 010 43.65V4.85A4.852 4.852 0 014.854 0z"/><path id="prefix__n" d="M4.854 0H240.27a4.852 4.852 0 014.854 4.85v38.8a4.852 4.852 0 01-4.854 4.85H4.854A4.852 4.852 0 010 43.65V4.85A4.852 4.852 0 014.854 0z"/><path id="prefix__p" d="M4.854 0H240.27a4.852 4.852 0 014.854 4.85v38.8a4.852 4.852 0 01-4.854 4.85H4.854A4.852 4.852 0 010 43.65V4.85A4.852 4.852 0 014.854 0z"/><path id="prefix__r" d="M269.393 0h129.843a4.852 4.852 0 014.854 4.85v75.175a4.852 4.852 0 01-4.854 4.85H269.393a4.852 4.852 0 01-4.854-4.85V4.85A4.852 4.852 0 01269.393 0z"/><path id="prefix__t" d="M4.854 0h394.382a4.852 4.852 0 014.854 4.85v29.1a4.852 4.852 0 01-4.854 4.85H4.854A4.852 4.852 0 010 33.95V4.85A4.852 4.852 0 014.854 0z"/><path id="prefix__u" d="M9.708 0h91.011a4.852 4.852 0 014.854 4.85v116.4H4.853V4.85A4.854 4.854 0 019.709 0z"/><filter id="prefix__a" width="131.1%" height="134.6%" x="-15.6%" y="-12.4%" filterUnits="objectBoundingBox"><feOffset dy="24" in="SourceAlpha" result="shadowOffsetOuter1"/><feGaussianBlur in="shadowOffsetOuter1" result="shadowBlurOuter1" stdDeviation="24"/><feColorMatrix in="shadowBlurOuter1" values="0 0 0 0 0.945098039 0 0 0 0 0.62745098 0 0 0 0 0.435294118 0 0 0 0.24 0"/></filter><filter id="prefix__e" width="112.6%" height="115.2%" x="-6.3%" y="-5.4%" filterUnits="objectBoundingBox"><feOffset dy="8" in="SourceAlpha" result="shadowOffsetOuter1"/><feGaussianBlur in="shadowOffsetOuter1" result="shadowBlurOuter1" stdDeviation="8"/><feColorMatrix in="shadowBlurOuter1" values="0 0 0 0 0.945098039 0 0 0 0 0.62745098 0 0 0 0 0.435294118 0 0 0 0.2 0"/></filter><filter id="prefix__g" width="102%" height="112.4%" x="-1%" y="-3.1%" filterUnits="objectBoundingBox"><feOffset dy="2" in="SourceAlpha" result="shadowOffsetOuter1"/><feGaussianBlur in="shadowOffsetOuter1" result="shadowBlurOuter1" stdDeviation=".5"/><feColorMatrix in="shadowBlurOuter1" values="0 0 0 0 0.823529412 0 0 0 0 0.854901961 0 0 0 0 0.858823529 0 0 0 0.6 0"/></filter><filter id="prefix__i" width="102%" height="112.4%" x="-1%" y="-3.1%" filterUnits="objectBoundingBox"><feOffset dy="2" in="SourceAlpha" result="shadowOffsetOuter1"/><feGaussianBlur in="shadowOffsetOuter1" result="shadowBlurOuter1" stdDeviation=".5"/><feColorMatrix in="shadowBlurOuter1" values="0 0 0 0 0.823529412 0 0 0 0 0.854901961 0 0 0 0 0.858823529 0 0 0 0.6 0"/></filter><filter id="prefix__k" width="102%" height="112.4%" x="-1%" y="-3.1%" filterUnits="objectBoundingBox"><feOffset dy="2" in="SourceAlpha" result="shadowOffsetOuter1"/><feGaussianBlur in="shadowOffsetOuter1" result="shadowBlurOuter1" stdDeviation=".5"/><feColorMatrix in="shadowBlurOuter1" values="0 0 0 0 0.823529412 0 0 0 0 0.854901961 0 0 0 0 0.858823529 0 0 0 0.6 0"/></filter><filter id="prefix__m" width="102%" height="112.4%" x="-1%" y="-3.1%" filterUnits="objectBoundingBox"><feOffset dy="2" in="SourceAlpha" result="shadowOffsetOuter1"/><feGaussianBlur in="shadowOffsetOuter1" result="shadowBlurOuter1" stdDeviation=".5"/><feColorMatrix in="shadowBlurOuter1" values="0 0 0 0 0.823529412 0 0 0 0 0.854901961 0 0 0 0 0.858823529 0 0 0 0.6 0"/></filter><filter id="prefix__o" width="102%" height="112.4%" x="-1%" y="-3.1%" filterUnits="objectBoundingBox"><feOffset dy="2" in="SourceAlpha" result="shadowOffsetOuter1"/><feGaussianBlur in="shadowOffsetOuter1" result="shadowBlurOuter1" stdDeviation=".5"/><feColorMatrix in="shadowBlurOuter1" values="0 0 0 0 0.823529412 0 0 0 0 0.854901961 0 0 0 0 0.858823529 0 0 0 0.6 0"/></filter><filter id="prefix__q" width="103.6%" height="107.1%" x="-1.8%" y="-1.8%" filterUnits="objectBoundingBox"><feOffset dy="2" in="SourceAlpha" result="shadowOffsetOuter1"/><feGaussianBlur in="shadowOffsetOuter1" result="shadowBlurOuter1" stdDeviation=".5"/><feColorMatrix in="shadowBlurOuter1" values="0 0 0 0 0.823529412 0 0 0 0 0.854901961 0 0 0 0 0.858823529 0 0 0 0.6 0"/></filter><filter id="prefix__s" width="101.2%" height="115.5%" x="-.6%" y="-3.9%" filterUnits="objectBoundingBox"><feOffset dy="2" in="SourceAlpha" result="shadowOffsetOuter1"/><feGaussianBlur in="shadowOffsetOuter1" result="shadowBlurOuter1" stdDeviation=".5"/><feColorMatrix in="shadowBlurOuter1" values="0 0 0 0 0.823529412 0 0 0 0 0.854901961 0 0 0 0 0.858823529 0 0 0 0.6 0"/></filter><linearGradient id="prefix__c" x1="50%" x2="50%" y1="0%" y2="100%"><stop offset="0%" stop-color="#FBDFCF"/><stop offset="100%" stop-color="#F1A06F"/></linearGradient></defs><g fill="none" fill-rule="evenodd"><use fill="#000" filter="url(#prefix__a)" xlink:href="#prefix__b"/><use fill="url(#prefix__c)" xlink:href="#prefix__b"/><g transform="translate(48.54 67.9)"><mask id="prefix__f" fill="#fff"><use xlink:href="#prefix__d"/></mask><use fill="#000" filter="url(#prefix__e)" xlink:href="#prefix__d"/><use fill="#F7F9F9" xlink:href="#prefix__d"/><path fill="#DBE1E2" d="M368.899 292.212a2.426 2.426 0 012.427 2.425v4.85a2.426 2.426 0 01-2.427 2.425h-72.81a2.425 2.425 0 01-2.426-2.424v-4.85a2.426 2.426 0 012.427-2.425h72.809zm-43.686-19.4a2.426 2.426 0 012.427 2.425v4.85a2.425 2.425 0 01-2.427 2.425H296.09a2.426 2.426 0 01-2.427-2.425v-4.85a2.426 2.426 0 012.427-2.425h29.123zm65.529 0a2.426 2.426 0 012.427 2.425v4.85a2.426 2.426 0 01-2.427 2.425h-50.967a2.426 2.426 0 01-2.427-2.425v-4.85a2.426 2.426 0 012.427-2.425h50.967zm15.775-19.4a2.426 2.426 0 012.427 2.425v4.85a2.426 2.426 0 01-2.427 2.425H296.09a2.426 2.426 0 01-2.427-2.425v-4.85a2.426 2.426 0 012.427-2.424h110.427zm-47.326-19.4a2.426 2.426 0 012.427 2.425v4.85a2.426 2.426 0 01-2.427 2.425H296.09a2.426 2.426 0 01-2.427-2.424v-4.85a2.426 2.426 0 012.427-2.425h63.101zm31.55 0a2.427 2.427 0 012.428 2.425v4.85a2.426 2.426 0 01-2.427 2.425h-16.99a2.425 2.425 0 01-2.426-2.424v-4.85a2.425 2.425 0 012.427-2.425h16.989zm-21.842-19.4a2.426 2.426 0 012.427 2.425v4.85a2.426 2.426 0 01-2.427 2.425h-72.81a2.425 2.425 0 01-2.426-2.425v-4.85a2.426 2.426 0 012.427-2.424h72.809z" mask="url(#prefix__f)"/><g mask="url(#prefix__f)"><g transform="translate(19.416 110.338)"><use fill="#000" filter="url(#prefix__g)" xlink:href="#prefix__h"/><use fill="#FFF" xlink:href="#prefix__h"/><path fill="#032128" fill-rule="nonzero" d="M189.119 27.887v-6.79h-1.097c-.039.26-.12.476-.243.65a1.462 1.462 0 01-.451.422 1.807 1.807 0 01-.602.223c-.223.042-.455.06-.694.054v1.038h1.708v4.403h1.379zm4.29.127c.33 0 .648-.049.952-.146a2.48 2.48 0 00.806-.427c.233-.187.419-.42.558-.698.14-.278.209-.595.209-.95 0-.389-.107-.722-.32-1a1.483 1.483 0 00-.884-.543v-.02a1.19 1.19 0 00.714-.514c.158-.252.237-.543.237-.873 0-.303-.068-.572-.203-.805a1.97 1.97 0 00-.53-.591 2.304 2.304 0 00-.732-.364 2.88 2.88 0 00-.816-.121c-.35 0-.667.056-.951.17a2.094 2.094 0 00-1.209 1.222 2.912 2.912 0 00-.19.955h1.311c-.006-.35.08-.638.258-.868.178-.23.441-.344.79-.344.253 0 .476.077.67.232.195.156.292.379.292.67a.722.722 0 01-.14.465.903.903 0 01-.36.267 1.519 1.519 0 01-.47.112c-.17.013-.328.013-.477 0v.97c.169 0 .345.004.53.014.184.01.354.045.51.107.154.061.282.16.383.296.1.136.15.333.15.591 0 .33-.107.59-.32.781a1.138 1.138 0 01-.787.286c-.2 0-.373-.035-.519-.106a1.063 1.063 0 01-.364-.286 1.266 1.266 0 01-.223-.427 1.973 1.973 0 01-.088-.52h-1.31c-.007.395.05.744.17 1.048.12.304.29.561.51.772.22.21.486.37.8.48.314.11.662.165 1.044.165zm4.806-.127v-1.493h-1.524v1.494h1.524zm5.786 0v-1.183h-3.213a3.07 3.07 0 01.582-.611c.22-.175.447-.338.68-.49.233-.152.464-.305.694-.46.23-.156.435-.329.616-.52.182-.19.327-.409.437-.654.11-.246.165-.54.165-.883 0-.33-.063-.627-.19-.892a1.952 1.952 0 00-.509-.67c-.213-.18-.46-.32-.742-.417a2.712 2.712 0 00-.889-.145c-.407 0-.768.07-1.082.208a2.13 2.13 0 00-.782.582c-.207.25-.362.54-.466.873a3.271 3.271 0 00-.135 1.082h1.32c0-.181.018-.364.053-.548.036-.185.096-.353.18-.505a1.05 1.05 0 01.335-.368.889.889 0 01.51-.14c.297 0 .541.091.732.276.191.184.287.44.287.77 0 .208-.047.392-.141.554-.094.161-.21.307-.35.436-.139.13-.292.247-.46.354-.169.107-.327.212-.476.315-.292.2-.568.398-.83.592-.262.194-.49.406-.685.635-.194.23-.348.49-.46.781-.114.291-.17.634-.17 1.028h4.99zm4.01 0v-6.79h-1.098a1.49 1.49 0 01-.242.65 1.465 1.465 0 01-.452.422 1.8 1.8 0 01-.602.223c-.223.042-.454.06-.694.054v1.038h1.709v4.403h1.378zm7.882.156c.926 0 1.65-.228 2.175-.684.524-.456.786-1.153.786-2.09v-4.307h-1.524v4.306c0 .518-.104.898-.31 1.14-.208.243-.583.364-1.127.364-.31 0-.558-.044-.742-.13a1.124 1.124 0 01-.432-.34c-.104-.14-.172-.3-.204-.48a3.09 3.09 0 01-.049-.553v-4.307h-1.524v4.306c0 .945.257 1.643.772 2.096.514.452 1.24.679 2.18.679zm6.786 0c.472 0 .888-.055 1.247-.165.36-.11.66-.264.903-.461s.426-.432.549-.703c.123-.272.184-.566.184-.883 0-.388-.082-.706-.247-.955a2.055 2.055 0 00-.588-.597 2.565 2.565 0 00-.684-.325 6.237 6.237 0 00-.539-.14c-.433-.11-.785-.201-1.053-.272a3.79 3.79 0 01-.631-.214c-.152-.07-.254-.148-.306-.232a.62.62 0 01-.078-.33c0-.149.033-.272.097-.369a.842.842 0 01.248-.242c.1-.065.212-.11.335-.136a1.78 1.78 0 01.369-.039c.188 0 .36.016.52.049.158.032.299.087.422.165a.863.863 0 01.296.32c.074.136.118.307.13.514h1.476c0-.401-.076-.742-.228-1.024a1.994 1.994 0 00-.616-.693 2.616 2.616 0 00-.889-.393 4.446 4.446 0 00-1.043-.121c-.31 0-.621.042-.932.126a2.59 2.59 0 00-.835.388 2.058 2.058 0 00-.597.655c-.152.262-.228.57-.228.926 0 .317.06.587.18.81.12.223.276.409.47.558.194.148.414.27.66.363.246.094.499.173.758.238.252.071.501.136.747.194.246.058.466.126.66.204.194.077.351.174.471.29.12.117.18.27.18.457a.671.671 0 01-.136.431.943.943 0 01-.34.267 1.527 1.527 0 01-.437.131c-.155.023-.3.034-.437.034-.2 0-.395-.024-.582-.073a1.44 1.44 0 01-.49-.223c-.14-.1-.251-.231-.335-.393a1.256 1.256 0 01-.127-.591h-1.475c-.007.426.071.795.233 1.105.162.31.38.566.655.767.275.2.592.347.951.441.36.094.73.14 1.112.14zm6.776-.155c.53 0 .992-.09 1.383-.267.392-.178.719-.422.981-.733.262-.31.458-.679.587-1.105a4.78 4.78 0 00.194-1.397c0-.576-.079-1.077-.237-1.504a2.97 2.97 0 00-.66-1.067 2.716 2.716 0 00-1-.64 3.583 3.583 0 00-1.248-.213h-2.99v6.925h2.99zm-.107-1.28h-1.359v-4.366h1.087c.376 0 .691.053.947.16.256.107.461.26.616.46.156.201.267.442.335.724.068.28.102.596.102.945 0 .382-.048.705-.145.97-.097.265-.227.48-.389.645a1.401 1.401 0 01-.553.354c-.207.072-.42.107-.64.107z"/><rect width="29.124" height="29.1" x="9.708" y="9.7" fill="#F7F9F9" rx="2"/><path fill="#A6B6B9" fill-rule="nonzero" d="M24.725 32.131c.25 0 .455-.204.455-.454v-1.364h.07c1.4 0 2.691-.904 3.027-2.263a2.991 2.991 0 00-2.076-3.589l-3.308-.943c-.45-.128-.813-.489-.884-.952a1.166 1.166 0 011.151-1.347h2.1c.452 0 .895.142 1.262.4a.453.453 0 00.583-.048l.652-.65a.46.46 0 00-.043-.685 3.992 3.992 0 00-2.455-.836h-.08v-1.364a.456.456 0 00-.454-.455h-.91a.457.457 0 00-.455.455V19.4h-.072c-1.399 0-2.69.904-3.026 2.262a2.993 2.993 0 002.077 3.59l3.307.943c.45.128.814.489.885.952.11.722-.45 1.347-1.152 1.347h-2.1c-.451 0-.895-.142-1.262-.4a.452.452 0 00-.583.047l-.651.651a.46.46 0 00.042.685c.7.543 1.553.835 2.455.835h.08v1.365c0 .25.204.454.455.454h.91z"/><path fill="#00AFCC" d="M36.404 7.275c2.681 0 4.854 2.171 4.854 4.85s-2.173 4.85-4.854 4.85c-2.68 0-4.853-2.171-4.853-4.85s2.173-4.85 4.853-4.85zm1.527 2.832l-2.27 2.76-.911-.78a.35.35 0 00-.493.038l-.455.53a.348.348 0 00.038.492l1.725 1.477a.344.344 0 00.226.084l.032-.002a.35.35 0 00.24-.126l2.948-3.586a.345.345 0 00.078-.256.353.353 0 00-.126-.236l-.54-.443a.351.351 0 00-.492.048z"/><path fill="#DBE1E2" d="M79.19 31.525c.67 0 1.213.543 1.213 1.212v2.425c0 .67-.543 1.213-1.213 1.213H49.753c-.67 0-1.214-.543-1.214-1.212v-2.425c0-.67.544-1.213 1.214-1.213H79.19zm45.061 0c.67 0 1.214.543 1.214 1.212v2.425c0 .67-.543 1.213-1.214 1.213H88.584c-.67 0-1.213-.543-1.213-1.212v-2.425c0-.67.543-1.213 1.213-1.213h35.667zm-11.227-9.7c.67 0 1.214.543 1.214 1.213v2.424c0 .67-.544 1.213-1.214 1.213H49.753c-.67 0-1.214-.543-1.214-1.213v-2.424c0-.67.544-1.213 1.214-1.213h63.271zm32.594-9.7c.67 0 1.213.543 1.213 1.213v2.425c0 .67-.543 1.212-1.213 1.212H49.753c-.67 0-1.214-.543-1.214-1.213v-2.425c0-.67.544-1.212 1.214-1.212h95.865z"/><g transform="translate(0 58.2)"><use fill="#000" filter="url(#prefix__i)" xlink:href="#prefix__j"/><use fill="#FFF" xlink:href="#prefix__j"/><path fill="#032128" fill-rule="nonzero" d="M194.71 27.887v-6.79h-1.096c-.04.26-.12.476-.243.65a1.462 1.462 0 01-.451.422c-.178.107-.38.181-.602.223-.224.042-.455.06-.694.054v1.038h1.708v4.403h1.379zm3.7 0v-1.493h-1.525v1.494h1.524zm5.785 0v-1.183h-3.213a3.07 3.07 0 01.582-.611c.22-.175.447-.338.68-.49.233-.152.464-.305.694-.46.23-.156.435-.329.617-.52.18-.19.326-.409.436-.654.11-.246.165-.54.165-.883 0-.33-.063-.627-.189-.892a1.968 1.968 0 00-.51-.67c-.213-.18-.46-.32-.742-.417a2.71 2.71 0 00-.888-.145c-.408 0-.769.07-1.083.208-.314.14-.574.333-.781.582-.207.25-.363.54-.466.873a3.22 3.22 0 00-.136 1.082h1.32c0-.181.018-.364.053-.548.036-.185.096-.353.18-.505a1.05 1.05 0 01.335-.368.889.889 0 01.51-.14c.297 0 .542.091.733.276.19.184.286.44.286.77 0 .208-.047.392-.14.554a1.928 1.928 0 01-.35.436c-.14.13-.293.247-.461.354-.169.107-.327.212-.476.315-.291.2-.568.398-.83.592-.262.194-.49.406-.685.635-.194.23-.347.49-.46.781-.114.291-.17.634-.17 1.028h4.99zm4.01 0v-6.79h-1.097c-.04.26-.12.476-.243.65a1.465 1.465 0 01-.452.422 1.794 1.794 0 01-.601.223c-.224.042-.455.06-.695.054v1.038h1.71v4.403h1.378zm10.222 0v-1.28h-3.738V24.91h3.36v-1.184h-3.36v-1.484h3.66v-1.28h-5.184v6.925h5.262zm3.951.156c.926 0 1.65-.228 2.175-.684.524-.456.786-1.153.786-2.09v-4.307h-1.524v4.306c0 .518-.104.898-.31 1.14-.208.243-.583.364-1.127.364-.31 0-.558-.044-.743-.13a1.14 1.14 0 01-.432-.34c-.103-.14-.171-.3-.203-.48a3.09 3.09 0 01-.049-.553v-4.307h-1.524v4.306c0 .945.257 1.643.772 2.096.514.452 1.24.679 2.18.679zm5.796-.155V25.18h1.524c.382 0 .657.084.825.252.168.169.278.434.33.796.039.278.068.569.087.873.02.304.072.566.156.785h1.524a1.003 1.003 0 01-.16-.354 2.986 2.986 0 01-.078-.44 8.279 8.279 0 01-.034-.457 16.643 16.643 0 00-.02-.388 4.121 4.121 0 00-.072-.524 1.775 1.775 0 00-.17-.48 1.333 1.333 0 00-.301-.378 1.174 1.174 0 00-.466-.238v-.02c.388-.154.668-.38.84-.678.171-.298.257-.65.257-1.057 0-.266-.047-.513-.14-.742a1.81 1.81 0 00-.408-.607 1.941 1.941 0 00-.641-.412c-.25-.1-.53-.15-.84-.15h-3.737v6.925h1.524zm1.67-3.793h-1.67v-1.95h1.67c.349 0 .611.076.786.228.174.152.262.396.262.732 0 .35-.088.602-.262.757-.175.155-.437.233-.787.233z"/><rect width="29.124" height="29.1" x="9.708" y="9.7" fill="#F7F9F9" rx="2"/><path fill="#A6B6B9" fill-rule="nonzero" d="M26.807 31.222c.694 0 1.29-.12 1.635-.205a.34.34 0 00.253-.403l-.185-.836a.343.343 0 00-.412-.258 5.721 5.721 0 01-1.271.153c-1.863 0-3.328-1.122-3.931-2.768h3.683a.338.338 0 00.333-.273l.142-.682a.34.34 0 00-.333-.409h-4.209a7.24 7.24 0 01-.017-1.364h4.622a.338.338 0 00.332-.27l.145-.682a.34.34 0 00-.332-.412h-4.468c.597-1.66 2.062-2.785 3.981-2.785.418 0 .822.06 1.087.108a.34.34 0 00.392-.247l.225-.841a.34.34 0 00-.267-.424 7.918 7.918 0 00-1.403-.133c-2.844 0-5.11 1.821-5.856 4.32h-.893a.341.341 0 00-.34.34v.682c0 .188.153.341.34.341h.657c-.034.45-.028 1.01.012 1.364h-.669a.342.342 0 00-.34.341v.682c0 .188.153.341.34.341h.916c.74 2.521 2.941 4.32 5.83 4.32z"/><path fill="#DBE1E2" d="M79.19 31.525c.67 0 1.213.543 1.213 1.212v2.425c0 .67-.543 1.213-1.213 1.213H49.753c-.67 0-1.214-.543-1.214-1.212v-2.425c0-.67.544-1.213 1.214-1.213H79.19zm26.978 0c.342 0 .619.543.619 1.212v2.425c0 .67-.277 1.213-.619 1.213H87.989c-.341 0-.618-.543-.618-1.212v-2.425c0-.67.277-1.213.618-1.213h18.179zm-11.177-9.7c.483 0 .874.543.874 1.213v2.424c0 .67-.391 1.213-.874 1.213H49.413c-.482 0-.874-.543-.874-1.213v-2.424c0-.67.392-1.213.874-1.213h45.578zm25.458-9.7c.497 0 .9.543.9 1.213v2.425c0 .67-.403 1.212-.9 1.212H49.44c-.497 0-.9-.543-.9-1.213v-2.425c0-.67.403-1.212.9-1.212h71.01z"/></g><g transform="translate(0 174.6)"><use fill="#000" filter="url(#prefix__k)" xlink:href="#prefix__l"/><use fill="#FFF" xlink:href="#prefix__l"/><path fill="#032128" fill-rule="nonzero" d="M177.974 27.887v-6.79h-1.097c-.039.26-.12.476-.242.65a1.465 1.465 0 01-.452.422 1.8 1.8 0 01-.602.223c-.223.042-.454.06-.694.054v1.038h1.709v4.403h1.378zm6.786 0v-1.183h-3.213a3.07 3.07 0 01.582-.611c.22-.175.447-.338.68-.49.233-.152.464-.305.694-.46.23-.156.435-.329.616-.52.182-.19.327-.409.437-.654.11-.246.165-.54.165-.883 0-.33-.063-.627-.189-.892a1.968 1.968 0 00-.51-.67c-.213-.18-.46-.32-.742-.417a2.712 2.712 0 00-.889-.145c-.407 0-.768.07-1.082.208a2.13 2.13 0 00-.782.582c-.207.25-.362.54-.466.873a3.271 3.271 0 00-.135 1.082h1.32c0-.181.018-.364.053-.548.036-.185.096-.353.18-.505a1.05 1.05 0 01.335-.368.889.889 0 01.51-.14c.297 0 .541.091.732.276.191.184.287.44.287.77 0 .208-.047.392-.141.554-.094.161-.21.307-.35.436-.139.13-.292.247-.46.354-.169.107-.327.212-.476.315-.292.2-.568.398-.83.592-.262.194-.49.406-.685.635-.194.23-.348.49-.46.781-.114.291-.17.634-.17 1.028h4.99zm2.728.127c.485 0 .896-.105 1.233-.316.336-.21.611-.485.825-.824.214-.34.369-.72.466-1.14.097-.42.146-.84.146-1.26 0-.428-.04-.851-.117-1.272a3.349 3.349 0 00-.417-1.13 2.355 2.355 0 00-.801-.805c-.333-.203-.759-.305-1.277-.305-.356 0-.68.064-.97.194a2.296 2.296 0 00-1.238 1.314c-.114.3-.17.626-.17.975 0 .271.042.54.126.805.084.265.217.501.398.708.194.214.43.383.709.51.278.125.563.189.854.189.33 0 .621-.059.874-.175.252-.116.472-.31.66-.582l.02.02c-.014.187-.041.4-.083.64a2.74 2.74 0 01-.209.674c-.097.21-.226.388-.388.533a.894.894 0 01-.622.218.8.8 0 01-.601-.252 1.163 1.163 0 01-.311-.591h-1.31c.038.297.119.562.242.795.123.233.282.43.476.592.194.161.417.283.67.363.252.081.524.122.815.122zm.097-3.395a.931.931 0 01-.786-.403 1.336 1.336 0 01-.19-.407 1.764 1.764 0 01-.063-.47c0-.156.023-.308.068-.457.046-.148.114-.281.204-.397.09-.117.2-.21.33-.282a.906.906 0 01.437-.106.991.991 0 01.811.392c.094.12.165.256.213.408.049.152.073.305.073.46 0 .169-.023.329-.068.48a1.188 1.188 0 01-.204.403.969.969 0 01-.34.277 1.068 1.068 0 01-.485.102zm5.475 3.395a2.5 2.5 0 00.971-.17 2.445 2.445 0 001.349-1.29c.136-.3.204-.626.204-.975 0-.317-.047-.616-.14-.897a2.155 2.155 0 00-.408-.733 1.955 1.955 0 00-.655-.494 2.064 2.064 0 00-.894-.185c-.271 0-.514.04-.728.122-.213.08-.414.215-.602.402l-.019-.02.272-1.542h2.805v-1.134h-3.795l-.67 3.753h1.242c.136-.187.282-.325.437-.412.156-.087.356-.13.602-.13a1.094 1.094 0 01.865.368c.103.116.18.252.232.407a1.546 1.546 0 01-.005.985 1.307 1.307 0 01-.233.417c-.1.12-.223.216-.369.29a1.052 1.052 0 01-.49.112c-.31 0-.566-.092-.767-.276-.2-.184-.317-.432-.35-.742h-1.378c.007.356.08.668.219.936s.325.493.558.674c.233.181.5.315.8.403a3.4 3.4 0 00.947.13zm4.806-.127v-1.493h-1.524v1.494h1.524zm5.786 0v-1.183h-3.214c.169-.233.363-.436.583-.611.22-.175.446-.338.68-.49.232-.152.464-.305.693-.46a3.73 3.73 0 00.617-.52c.181-.19.327-.409.437-.654.11-.246.165-.54.165-.883 0-.33-.063-.627-.19-.892a1.968 1.968 0 00-.51-.67c-.213-.18-.46-.32-.742-.417a2.702 2.702 0 00-.888-.145c-.408 0-.769.07-1.083.208-.313.14-.574.333-.781.582-.207.25-.362.54-.466.873a3.245 3.245 0 00-.136 1.082h1.32c0-.181.018-.364.054-.548.035-.185.095-.353.18-.505.083-.152.195-.274.334-.368.14-.094.31-.14.51-.14.298 0 .542.091.733.276.19.184.286.44.286.77 0 .208-.047.392-.14.554-.094.161-.21.307-.35.436-.14.13-.293.247-.461.354-.168.107-.327.212-.476.315-.291.2-.568.398-.83.592a4.05 4.05 0 00-.684.635 2.74 2.74 0 00-.461.781c-.114.291-.17.634-.17 1.028h4.99zm2.902.127c.33 0 .647-.049.952-.146.304-.097.572-.24.805-.427.233-.187.42-.42.559-.698.139-.278.208-.595.208-.95a1.59 1.59 0 00-.32-1 1.481 1.481 0 00-.883-.543v-.02c.317-.09.554-.261.713-.514a1.6 1.6 0 00.238-.873c0-.303-.068-.572-.204-.805a1.957 1.957 0 00-.53-.591 2.304 2.304 0 00-.732-.364 2.88 2.88 0 00-.815-.121c-.35 0-.667.056-.952.17a2.103 2.103 0 00-1.208 1.222 2.861 2.861 0 00-.19.955h1.31c-.006-.35.08-.638.258-.868.178-.23.442-.344.791-.344.253 0 .476.077.67.232.194.156.291.379.291.67a.722.722 0 01-.14.465.896.896 0 01-.36.267 1.505 1.505 0 01-.47.112 2.907 2.907 0 01-.476 0v.97c.168 0 .344.004.529.014.184.01.354.045.51.107.155.061.283.16.383.296.1.136.15.333.15.591 0 .33-.106.59-.32.781a1.136 1.136 0 01-.786.286c-.2 0-.374-.035-.52-.106a1.072 1.072 0 01-.364-.286 1.284 1.284 0 01-.223-.427 1.972 1.972 0 01-.087-.52h-1.31c-.007.395.05.744.17 1.048.119.304.289.561.509.772.22.21.487.37.8.48.315.11.662.165 1.044.165zm7.592-.127v-2.706h1.524c.382 0 .657.084.825.252.168.169.278.434.33.796.039.278.068.569.088.873.019.304.07.566.155.785h1.524a1.003 1.003 0 01-.16-.354 2.986 2.986 0 01-.078-.44 8.279 8.279 0 01-.034-.457 16.643 16.643 0 00-.02-.388 3.949 3.949 0 00-.072-.524 1.775 1.775 0 00-.17-.48 1.347 1.347 0 00-.3-.378 1.192 1.192 0 00-.467-.238v-.02c.388-.154.668-.38.84-.678.171-.298.257-.65.257-1.057 0-.266-.047-.513-.14-.742a1.795 1.795 0 00-.408-.607 1.941 1.941 0 00-.641-.412c-.25-.1-.53-.15-.84-.15h-3.737v6.925h1.524zm1.67-3.792h-1.67v-1.95h1.67c.349 0 .611.076.786.228.175.152.262.396.262.732 0 .35-.087.602-.262.757-.175.155-.437.233-.786.233zm6.737 3.948c.925 0 1.65-.228 2.174-.684.525-.456.787-1.153.787-2.09v-4.307h-1.524v4.306c0 .518-.104.898-.311 1.14-.207.243-.583.364-1.126.364-.31 0-.558-.044-.743-.13a1.14 1.14 0 01-.432-.34c-.103-.14-.171-.3-.204-.48a3.185 3.185 0 01-.048-.553v-4.307h-1.524v4.306c0 .945.257 1.643.771 2.096.515.452 1.241.679 2.18.679zm7.63-.155c.31 0 .613-.04.908-.117.294-.078.556-.197.786-.359.23-.161.413-.37.549-.625.136-.256.204-.558.204-.907 0-.434-.106-.804-.316-1.111-.21-.307-.529-.522-.956-.645.31-.149.545-.34.704-.572.158-.233.238-.524.238-.873 0-.324-.054-.595-.16-.815a1.339 1.339 0 00-.452-.529 1.952 1.952 0 00-.7-.286 4.314 4.314 0 00-.902-.087h-3.262v6.925h3.36zm-.291-4.123h-1.544v-1.62h1.427c.136 0 .267.011.394.034.126.023.237.063.335.121.097.058.174.14.233.243a.806.806 0 01.087.398c0 .29-.087.5-.262.63-.175.13-.398.194-.67.194zm.087 2.94h-1.63v-1.902h1.66c.33 0 .595.076.795.228.201.152.301.406.301.761 0 .181-.03.33-.092.446a.722.722 0 01-.247.277 1.051 1.051 0 01-.36.145c-.135.03-.278.044-.427.044z"/><rect width="29.124" height="29.1" x="9.708" y="9.7" fill="#F7F9F9" rx="2"/><path fill="#A6B6B9" fill-rule="nonzero" d="M22.108 31.222a.34.34 0 00.341-.341v-1.933h5.12a.34.34 0 00.341-.34v-.683a.34.34 0 00-.341-.34h-5.12v-1.07h3.275c2.328 0 4.006-1.623 4.006-4.04 0-2.415-1.678-3.984-4.006-3.984H20.97a.34.34 0 00-.342.34v6.133H19.15a.341.341 0 00-.341.341v.87c0 .188.153.34.341.34h1.48v1.07h-1.48a.34.34 0 00-.341.34v.682a.34.34 0 00.341.341h1.48v1.933c0 .188.152.34.34.34h1.138zm3.327-6.258h-2.986v-4.923h3.004c1.516 0 2.455.902 2.455 2.435s-.939 2.488-2.473 2.488z"/><path fill="#DBE1E2" d="M79.19 31.525c.67 0 1.213.543 1.213 1.212v2.425c0 .67-.543 1.213-1.213 1.213H49.753c-.67 0-1.214-.543-1.214-1.212v-2.425c0-.67.544-1.213 1.214-1.213H79.19zm40.813-9.7c.743 0 1.345.543 1.345 1.213v2.424c0 .67-.602 1.213-1.345 1.213H49.884c-.743 0-1.345-.543-1.345-1.213v-2.424c0-.67.602-1.213 1.345-1.213h70.12zm-25.92-9.7c.314 0 .569.543.569 1.213v2.425c0 .67-.255 1.212-.57 1.212H49.11c-.315 0-.57-.543-.57-1.213v-2.425c0-.67.255-1.212.57-1.212h44.973z"/></g><g transform="translate(0 232.8)"><use fill="#000" filter="url(#prefix__m)" xlink:href="#prefix__n"/><use fill="#FFF" xlink:href="#prefix__n"/><path fill="#032128" fill-rule="nonzero" d="M172.538 28.014c.343 0 .665-.059.966-.175.3-.116.566-.31.796-.582.23-.272.41-.635.544-1.091.132-.456.199-1.024.199-1.703 0-.66-.067-1.214-.2-1.663-.132-.45-.313-.81-.543-1.082a1.98 1.98 0 00-.796-.582 2.663 2.663 0 00-.966-.174c-.337 0-.655.058-.956.174-.301.117-.565.31-.792.582-.226.272-.406.632-.538 1.082-.133.45-.2 1.004-.2 1.663 0 .68.067 1.247.2 1.703.132.456.312.82.538 1.091.227.272.49.466.792.582.3.116.62.175.956.175zm0-1.126c-.278 0-.492-.09-.64-.271-.15-.181-.258-.4-.326-.655s-.108-.52-.121-.795a15.346 15.346 0 01-.015-1.126c.003-.164.015-.334.034-.509a3.73 3.73 0 01.097-.519c.045-.171.109-.325.19-.46.08-.136.184-.246.31-.33a.83.83 0 01.47-.126c.189 0 .347.042.477.126.129.084.236.194.32.33.084.135.147.289.19.46a4.85 4.85 0 01.136 1.028c.002.165.004.306.004.422 0 .194-.006.429-.02.704-.012.274-.053.54-.12.795a1.702 1.702 0 01-.33.655c-.153.18-.371.271-.656.271zm4.815 1v-1.494h-1.524v1.494h1.524zm3.281.126c.343 0 .665-.059.966-.175.301-.116.566-.31.796-.582.23-.272.411-.635.544-1.091.133-.456.199-1.024.199-1.703 0-.66-.066-1.214-.2-1.663-.132-.45-.313-.81-.543-1.082a1.98 1.98 0 00-.796-.582 2.66 2.66 0 00-.966-.174c-.336 0-.655.058-.956.174-.3.117-.565.31-.791.582-.227.272-.406.632-.539 1.082-.133.45-.199 1.004-.199 1.663 0 .68.066 1.247.199 1.703.133.456.312.82.539 1.091.226.272.49.466.791.582.301.116.62.175.956.175zm0-1.126c-.278 0-.492-.09-.64-.271-.15-.181-.258-.4-.326-.655s-.108-.52-.121-.795a15.346 15.346 0 01-.015-1.126c.004-.164.015-.334.034-.509a3.73 3.73 0 01.097-.519c.046-.171.109-.325.19-.46.08-.136.184-.246.31-.33a.836.836 0 01.471-.126c.188 0 .346.042.476.126.13.084.236.194.32.33.084.135.148.289.19.46a4.854 4.854 0 01.136 1.028 14.035 14.035 0 01-.016 1.126c-.012.274-.052.54-.12.795s-.178.474-.33.655c-.153.18-.371.271-.656.271zm5.398 1.126c.343 0 .665-.059.966-.175.3-.116.566-.31.796-.582.23-.272.41-.635.543-1.091.133-.456.2-1.024.2-1.703 0-.66-.067-1.214-.2-1.663-.132-.45-.313-.81-.543-1.082a1.98 1.98 0 00-.796-.582 2.663 2.663 0 00-.966-.174c-.337 0-.655.058-.956.174-.301.117-.565.31-.792.582-.226.272-.406.632-.538 1.082-.133.45-.2 1.004-.2 1.663 0 .68.067 1.247.2 1.703.132.456.312.82.538 1.091.227.272.49.466.792.582.3.116.62.175.956.175zm0-1.126c-.278 0-.492-.09-.64-.271-.15-.181-.258-.4-.326-.655s-.109-.52-.121-.795a15.346 15.346 0 01-.015-1.126c.003-.164.015-.334.034-.509a3.73 3.73 0 01.097-.519 1.73 1.73 0 01.19-.46c.08-.136.184-.246.31-.33a.83.83 0 01.47-.126c.189 0 .347.042.477.126.129.084.236.194.32.33.084.135.147.289.19.46a4.85 4.85 0 01.136 1.028c.002.165.004.306.004.422 0 .194-.007.429-.02.704-.012.274-.053.54-.12.795a1.702 1.702 0 01-.33.655c-.153.18-.371.271-.656.271zm5.397 1.126c.343 0 .665-.059.966-.175.301-.116.567-.31.796-.582.23-.272.411-.635.544-1.091.133-.456.199-1.024.199-1.703 0-.66-.066-1.214-.199-1.663-.133-.45-.314-.81-.544-1.082a1.98 1.98 0 00-.796-.582 2.66 2.66 0 00-.966-.174c-.336 0-.655.058-.956.174-.3.117-.565.31-.791.582-.227.272-.406.632-.539 1.082-.132.45-.199 1.004-.199 1.663 0 .68.067 1.247.2 1.703.132.456.311.82.538 1.091.226.272.49.466.791.582.301.116.62.175.956.175zm0-1.126c-.278 0-.491-.09-.64-.271-.15-.181-.258-.4-.326-.655a3.766 3.766 0 01-.12-.795 14.035 14.035 0 01-.015-1.126c.003-.164.014-.334.034-.509.019-.174.051-.347.097-.519.045-.171.108-.325.189-.46.08-.136.184-.246.31-.33a.836.836 0 01.471-.126c.188 0 .347.042.476.126.13.084.236.194.32.33.085.135.148.289.19.46a4.854 4.854 0 01.136 1.028 15.346 15.346 0 01-.015 1.126c-.013.274-.053.54-.121.795s-.178.474-.33.655c-.152.18-.37.271-.656.271zm5.398 1.126c.343 0 .665-.059.966-.175.3-.116.566-.31.796-.582.23-.272.41-.635.544-1.091.132-.456.199-1.024.199-1.703 0-.66-.067-1.214-.2-1.663-.132-.45-.313-.81-.543-1.082a1.98 1.98 0 00-.796-.582 2.663 2.663 0 00-.966-.174c-.337 0-.655.058-.956.174a1.93 1.93 0 00-.791.582c-.227.272-.407.632-.54 1.082-.132.45-.198 1.004-.198 1.663 0 .68.066 1.247.199 1.703.132.456.312.82.539 1.091.226.272.49.466.79.582.302.116.62.175.957.175zm0-1.126c-.278 0-.492-.09-.64-.271-.15-.181-.258-.4-.326-.655s-.108-.52-.121-.795a15.346 15.346 0 01-.015-1.126c.003-.164.015-.334.034-.509a3.73 3.73 0 01.097-.519c.045-.171.109-.325.19-.46.08-.136.184-.246.31-.33.126-.084.283-.126.471-.126s.346.042.476.126c.13.084.236.194.32.33.084.135.147.289.19.46a4.85 4.85 0 01.136 1.028c.002.165.004.306.004.422 0 .194-.006.429-.02.704-.012.274-.053.54-.12.795a1.702 1.702 0 01-.33.655c-.153.18-.371.271-.656.271zm7.902 1v-1.184h-3.213a3.07 3.07 0 01.582-.611c.22-.175.447-.338.68-.49.233-.152.464-.305.694-.46.23-.156.435-.329.616-.52.182-.19.327-.409.437-.654.11-.246.165-.54.165-.883 0-.33-.063-.627-.189-.892a1.968 1.968 0 00-.51-.67c-.213-.18-.46-.32-.742-.417a2.712 2.712 0 00-.889-.145c-.407 0-.768.07-1.082.208-.314.14-.574.333-.781.582-.208.25-.363.54-.466.873a3.22 3.22 0 00-.136 1.082h1.32c0-.181.018-.364.053-.548.036-.185.096-.353.18-.505a1.05 1.05 0 01.335-.368.889.889 0 01.51-.14c.297 0 .542.091.732.276.191.184.287.44.287.77 0 .208-.047.392-.14.554a1.928 1.928 0 01-.35.436c-.14.13-.293.247-.462.354-.168.107-.326.212-.475.315-.291.2-.568.398-.83.592-.262.194-.49.406-.685.635-.194.23-.348.49-.46.781-.114.291-.17.634-.17 1.028h4.99zm4.01 0v-6.79h-1.097c-.04.258-.12.475-.243.65a1.474 1.474 0 01-.452.421 1.802 1.802 0 01-.601.223c-.224.042-.455.06-.695.054v1.038h1.709v4.403h1.379zm8.32 0c.31 0 .612-.04.907-.117.294-.078.556-.197.786-.359.23-.161.413-.37.549-.625.136-.256.204-.558.204-.907 0-.434-.106-.804-.316-1.111-.21-.307-.529-.522-.956-.645.31-.149.545-.34.704-.572.158-.233.237-.524.237-.873 0-.324-.053-.595-.16-.815a1.328 1.328 0 00-.451-.529 1.952 1.952 0 00-.7-.286 4.314 4.314 0 00-.902-.087H213.7v6.925h3.36zm-.292-4.123h-1.544v-1.62h1.427c.136 0 .267.011.394.034.126.023.237.063.335.121.097.058.174.14.233.243a.806.806 0 01.087.398c0 .29-.087.5-.262.63-.175.13-.398.194-.67.194zm.087 2.94h-1.63v-1.902h1.66c.33 0 .595.076.795.228.201.152.301.406.301.761 0 .181-.03.33-.092.446a.722.722 0 01-.247.277 1.051 1.051 0 01-.36.145c-.135.03-.278.044-.427.044zm6.738 1.183v-5.646h2.077v-1.28h-5.68v1.28h2.078v5.645h1.525zm5.98.155c.427 0 .818-.065 1.174-.194.356-.13.667-.317.932-.563.266-.246.48-.543.64-.892.163-.35.263-.74.302-1.174h-1.476c-.058.466-.218.84-.48 1.125-.262.285-.626.427-1.092.427-.343 0-.635-.066-.874-.199a1.659 1.659 0 01-.583-.529 2.311 2.311 0 01-.325-.742 3.51 3.51 0 01-.102-.848c0-.304.034-.598.102-.883.068-.285.177-.538.325-.761.15-.224.343-.401.583-.534.24-.133.53-.199.874-.199a1.578 1.578 0 011 .349c.135.11.249.238.34.384.09.145.148.305.174.48h1.476a2.812 2.812 0 00-.33-1.067 2.61 2.61 0 00-.665-.781 2.94 2.94 0 00-.913-.48 3.49 3.49 0 00-1.082-.165c-.531 0-1.008.094-1.432.281a3.064 3.064 0 00-1.073.776c-.291.33-.515.716-.67 1.16a4.323 4.323 0 00-.233 1.44c0 .504.078.975.233 1.411.155.437.379.816.67 1.14.291.323.649.577 1.073.761.424.185.9.277 1.432.277z"/><rect width="29.124" height="29.1" x="9.708" y="9.7" fill="#F7F9F9" rx="2"/><path fill="#A6B6B9" fill-rule="nonzero" d="M24.27 31.904a7.05 7.05 0 007.053-7.048 7.05 7.05 0 00-7.053-7.047 7.05 7.05 0 00-7.054 7.047 7.05 7.05 0 007.054 7.048zm-.303-2.715l-.774-.193.316-1.265c-.17-.042-.447-.114-.617-.16l-.317 1.271-.773-.192.32-1.285c-.18-.046-.364-.096-.551-.142l-1.008-.251.385-.885s.57.151.562.14c.22.054.317-.089.355-.184l.506-2.027.082.02c-.031-.012-.059-.02-.08-.026l.36-1.447c.01-.164-.047-.371-.36-.45.012-.008-.562-.14-.562-.14l.206-.825 1.067.266v.004c.16.04.325.078.493.116l.317-1.27.774.193-.31 1.245c.207.047.416.095.62.146l.308-1.237.774.193-.317 1.27c.977.336 1.692.84 1.551 1.778-.101.687-.482 1.02-.988 1.136.694.36 1.048.915.711 1.875-.418 1.192-1.41 1.293-2.73 1.044l-.32 1.282zm1.798-5.35c.228-.912-1.18-1.115-1.616-1.224l-.386 1.544c.437.11 1.784.553 2.002-.32zm-.24 2.49c.25-1-1.431-1.26-1.956-1.39l-.425 1.702c.525.13 2.143.649 2.382-.311z"/><path fill="#DBE1E2" d="M113.024 21.825c.67 0 1.214.543 1.214 1.213v2.424c0 .67-.544 1.213-1.214 1.213H49.753c-.67 0-1.214-.543-1.214-1.213v-2.424c0-.67.544-1.213 1.214-1.213h63.271zm32.594-9.7c.67 0 1.213.543 1.213 1.213v2.425c0 .67-.543 1.212-1.213 1.212H49.753c-.67 0-1.214-.543-1.214-1.213v-2.425c0-.67.544-1.212 1.214-1.212h95.865z"/></g><g transform="translate(0 116.4)"><use fill="#000" filter="url(#prefix__o)" xlink:href="#prefix__p"/><use fill="#FFF" xlink:href="#prefix__p"/><path fill="#032128" fill-rule="nonzero" d="M172.538 28.014c.343 0 .665-.059.966-.175.3-.116.566-.31.796-.582.23-.272.41-.635.544-1.091.132-.456.199-1.024.199-1.703 0-.66-.067-1.214-.2-1.663-.132-.45-.313-.81-.543-1.082a1.98 1.98 0 00-.796-.582 2.663 2.663 0 00-.966-.174c-.337 0-.655.058-.956.174-.301.117-.565.31-.792.582-.226.272-.406.632-.538 1.082-.133.45-.2 1.004-.2 1.663 0 .68.067 1.247.2 1.703.132.456.312.82.538 1.091.227.272.49.466.792.582.3.116.62.175.956.175zm0-1.126c-.278 0-.492-.09-.64-.271-.15-.181-.258-.4-.326-.655s-.108-.52-.121-.795a15.346 15.346 0 01-.015-1.126c.003-.164.015-.334.034-.509a3.73 3.73 0 01.097-.519c.045-.171.109-.325.19-.46.08-.136.184-.246.31-.33a.83.83 0 01.47-.126c.189 0 .347.042.477.126.129.084.236.194.32.33.084.135.147.289.19.46a4.85 4.85 0 01.136 1.028c.002.165.004.306.004.422 0 .194-.006.429-.02.704-.012.274-.053.54-.12.795a1.702 1.702 0 01-.33.655c-.153.18-.371.271-.656.271zm4.815 1v-1.494h-1.524v1.494h1.524zm3.281.126c.343 0 .665-.059.966-.175.301-.116.566-.31.796-.582.23-.272.411-.635.544-1.091.133-.456.199-1.024.199-1.703 0-.66-.066-1.214-.2-1.663-.132-.45-.313-.81-.543-1.082a1.98 1.98 0 00-.796-.582 2.66 2.66 0 00-.966-.174c-.336 0-.655.058-.956.174-.3.117-.565.31-.791.582-.227.272-.406.632-.539 1.082-.133.45-.199 1.004-.199 1.663 0 .68.066 1.247.199 1.703.133.456.312.82.539 1.091.226.272.49.466.791.582.301.116.62.175.956.175zm0-1.126c-.278 0-.492-.09-.64-.271-.15-.181-.258-.4-.326-.655s-.108-.52-.121-.795a15.346 15.346 0 01-.015-1.126c.004-.164.015-.334.034-.509a3.73 3.73 0 01.097-.519c.046-.171.109-.325.19-.46.08-.136.184-.246.31-.33a.836.836 0 01.471-.126c.188 0 .346.042.476.126.13.084.236.194.32.33.084.135.148.289.19.46a4.854 4.854 0 01.136 1.028 14.035 14.035 0 01-.016 1.126c-.012.274-.052.54-.12.795s-.178.474-.33.655c-.153.18-.371.271-.656.271zm5.398 1.126c.343 0 .665-.059.966-.175.3-.116.566-.31.796-.582.23-.272.41-.635.543-1.091.133-.456.2-1.024.2-1.703 0-.66-.067-1.214-.2-1.663-.132-.45-.313-.81-.543-1.082a1.98 1.98 0 00-.796-.582 2.663 2.663 0 00-.966-.174c-.337 0-.655.058-.956.174-.301.117-.565.31-.792.582-.226.272-.406.632-.538 1.082-.133.45-.2 1.004-.2 1.663 0 .68.067 1.247.2 1.703.132.456.312.82.538 1.091.227.272.49.466.792.582.3.116.62.175.956.175zm0-1.126c-.278 0-.492-.09-.64-.271-.15-.181-.258-.4-.326-.655s-.109-.52-.121-.795a15.346 15.346 0 01-.015-1.126c.003-.164.015-.334.034-.509a3.73 3.73 0 01.097-.519 1.73 1.73 0 01.19-.46c.08-.136.184-.246.31-.33a.83.83 0 01.47-.126c.189 0 .347.042.477.126.129.084.236.194.32.33.084.135.147.289.19.46a4.85 4.85 0 01.136 1.028c.002.165.004.306.004.422 0 .194-.007.429-.02.704-.012.274-.053.54-.12.795a1.702 1.702 0 01-.33.655c-.153.18-.371.271-.656.271zm5.397 1.126c.343 0 .665-.059.966-.175.301-.116.567-.31.796-.582.23-.272.411-.635.544-1.091.133-.456.199-1.024.199-1.703 0-.66-.066-1.214-.199-1.663-.133-.45-.314-.81-.544-1.082a1.98 1.98 0 00-.796-.582 2.66 2.66 0 00-.966-.174c-.336 0-.655.058-.956.174-.3.117-.565.31-.791.582-.227.272-.406.632-.539 1.082-.132.45-.199 1.004-.199 1.663 0 .68.067 1.247.2 1.703.132.456.311.82.538 1.091.226.272.49.466.791.582.301.116.62.175.956.175zm0-1.126c-.278 0-.491-.09-.64-.271-.15-.181-.258-.4-.326-.655a3.766 3.766 0 01-.12-.795 14.035 14.035 0 01-.015-1.126c.003-.164.014-.334.034-.509.019-.174.051-.347.097-.519.045-.171.108-.325.189-.46.08-.136.184-.246.31-.33a.836.836 0 01.471-.126c.188 0 .347.042.476.126.13.084.236.194.32.33.085.135.148.289.19.46a4.854 4.854 0 01.136 1.028 15.346 15.346 0 01-.015 1.126c-.013.274-.053.54-.121.795s-.178.474-.33.655c-.152.18-.37.271-.656.271zm5.408 1.126c.33 0 .647-.049.951-.146a2.48 2.48 0 00.806-.427c.233-.187.419-.42.558-.698.14-.278.209-.595.209-.95 0-.389-.107-.722-.32-1a1.483 1.483 0 00-.884-.543v-.02c.317-.09.555-.261.713-.514a1.6 1.6 0 00.238-.873c0-.303-.068-.572-.204-.805a1.954 1.954 0 00-.529-.591 2.298 2.298 0 00-.733-.364 2.869 2.869 0 00-.815-.121c-.35 0-.667.056-.951.17a2.094 2.094 0 00-1.209 1.222 2.912 2.912 0 00-.19.955h1.311c-.006-.35.08-.638.257-.868.178-.23.442-.344.792-.344.252 0 .475.077.67.232.194.156.29.379.29.67 0 .194-.046.349-.14.465a.896.896 0 01-.36.267 1.505 1.505 0 01-.47.112 2.907 2.907 0 01-.476 0v.97c.169 0 .345.004.53.014.184.01.354.045.509.107.155.061.283.16.383.296.1.136.151.333.151.591 0 .33-.107.59-.32.781a1.138 1.138 0 01-.787.286c-.2 0-.373-.035-.52-.106a1.069 1.069 0 01-.363-.286 1.266 1.266 0 01-.223-.427 1.973 1.973 0 01-.088-.52h-1.31c-.007.395.05.744.17 1.048.12.304.29.561.51.772.22.21.486.37.8.48.314.11.662.165 1.044.165zm7.892-.127v-1.183h-3.213a3.07 3.07 0 01.582-.611c.22-.175.447-.338.68-.49.233-.152.464-.305.694-.46.23-.156.435-.329.616-.52.182-.19.327-.409.437-.654.11-.246.165-.54.165-.883 0-.33-.063-.627-.189-.892a1.968 1.968 0 00-.51-.67c-.213-.18-.46-.32-.742-.417a2.712 2.712 0 00-.889-.145c-.407 0-.768.07-1.082.208-.314.14-.574.333-.781.582-.208.25-.363.54-.466.873a3.22 3.22 0 00-.136 1.082h1.32c0-.181.018-.364.053-.548.036-.185.096-.353.18-.505a1.05 1.05 0 01.335-.368.889.889 0 01.51-.14c.297 0 .542.091.732.276.191.184.287.44.287.77 0 .208-.047.392-.14.554a1.928 1.928 0 01-.35.436c-.14.13-.293.247-.462.354-.168.107-.326.212-.475.315-.291.2-.568.398-.83.592-.262.194-.49.406-.685.635-.194.23-.348.49-.46.781-.114.291-.17.634-.17 1.028h4.99zm4.01 0v-6.79h-1.097c-.04.26-.12.476-.243.65a1.465 1.465 0 01-.452.422 1.802 1.802 0 01-.601.223c-.224.042-.455.06-.695.054v1.038h1.709v4.403h1.379zm8.32 0c.31 0 .612-.038.907-.116.294-.078.556-.197.786-.359.23-.161.413-.37.549-.625.136-.256.204-.558.204-.907 0-.434-.106-.804-.316-1.111-.21-.307-.529-.522-.956-.645.31-.149.545-.34.704-.572.158-.233.237-.524.237-.873 0-.324-.053-.595-.16-.815a1.328 1.328 0 00-.451-.529 1.952 1.952 0 00-.7-.286 4.314 4.314 0 00-.902-.087H213.7v6.925h3.36zm-.292-4.122h-1.544v-1.62h1.427c.136 0 .267.011.394.034.126.023.237.063.335.121.097.058.174.14.233.243a.806.806 0 01.087.398c0 .29-.087.5-.262.63-.175.13-.398.194-.67.194zm.087 2.94h-1.63v-1.902h1.66c.33 0 .595.076.795.228.201.152.301.406.301.761 0 .181-.03.33-.092.446a.722.722 0 01-.247.277 1.051 1.051 0 01-.36.145c-.135.03-.278.044-.427.044zm6.738 1.183v-5.646h2.077v-1.28h-5.68v1.28h2.078v5.645h1.525zm5.98.155c.427 0 .818-.065 1.174-.194.356-.13.667-.317.932-.563.266-.246.48-.543.64-.892.163-.35.263-.74.302-1.174h-1.476c-.058.466-.218.84-.48 1.125-.262.285-.626.427-1.092.427-.343 0-.635-.066-.874-.199a1.659 1.659 0 01-.583-.529 2.311 2.311 0 01-.325-.742 3.51 3.51 0 01-.102-.848c0-.304.034-.598.102-.883.068-.285.177-.538.325-.761.15-.224.343-.401.583-.534.24-.133.53-.199.874-.199a1.578 1.578 0 011 .349c.135.11.249.238.34.384.09.145.148.305.174.48h1.476a2.812 2.812 0 00-.33-1.067 2.61 2.61 0 00-.665-.781 2.94 2.94 0 00-.913-.48 3.49 3.49 0 00-1.082-.165c-.531 0-1.008.094-1.432.281a3.064 3.064 0 00-1.073.776c-.291.33-.515.716-.67 1.16a4.323 4.323 0 00-.233 1.44c0 .504.078.975.233 1.411.155.437.379.816.67 1.14.291.323.649.577 1.073.761.424.185.9.277 1.432.277z"/><rect width="29.124" height="29.1" x="9.708" y="9.7" fill="#F7F9F9" rx="2"/><path fill="#A6B6B9" fill-rule="nonzero" d="M24.27 31.904a7.05 7.05 0 007.053-7.048 7.05 7.05 0 00-7.053-7.047 7.05 7.05 0 00-7.054 7.047 7.05 7.05 0 007.054 7.048zm-.303-2.715l-.774-.193.316-1.265c-.17-.042-.447-.114-.617-.16l-.317 1.271-.773-.192.32-1.285c-.18-.046-.364-.096-.551-.142l-1.008-.251.385-.885s.57.151.562.14c.22.054.317-.089.355-.184l.506-2.027.082.02c-.031-.012-.059-.02-.08-.026l.36-1.447c.01-.164-.047-.371-.36-.45.012-.008-.562-.14-.562-.14l.206-.825 1.067.266v.004c.16.04.325.078.493.116l.317-1.27.774.193-.31 1.245c.207.047.416.095.62.146l.308-1.237.774.193-.317 1.27c.977.336 1.692.84 1.551 1.778-.101.687-.482 1.02-.988 1.136.694.36 1.048.915.711 1.875-.418 1.192-1.41 1.293-2.73 1.044l-.32 1.282zm1.798-5.35c.228-.912-1.18-1.115-1.616-1.224l-.386 1.544c.437.11 1.784.553 2.002-.32zm-.24 2.49c.25-1-1.431-1.26-1.956-1.39l-.425 1.702c.525.13 2.143.649 2.382-.311z"/><path fill="#FE9C65" d="M36.404 7.275c2.681 0 4.854 2.171 4.854 4.85s-2.173 4.85-4.854 4.85c-2.68 0-4.853-2.171-4.853-4.85s2.173-4.85 4.853-4.85zm-.347 1.516a.348.348 0 00-.353.346l-.048 3.555c0 .095.035.184.102.25l.023.022a.35.35 0 00.228.081l2.271-.024c.093 0 .18-.038.246-.105a.346.346 0 00.1-.248l-.007-.698a.35.35 0 00-.353-.345l-1.201.012.037-2.486a.35.35 0 00-.346-.352z"/><path fill="#DBE1E2" d="M79.19 31.525c.67 0 1.213.543 1.213 1.212v2.425c0 .67-.543 1.213-1.213 1.213H49.753c-.67 0-1.214-.543-1.214-1.212v-2.425c0-.67.544-1.213 1.214-1.213H79.19zm22.947-9.7c.557 0 1.01.543 1.01 1.213v2.424c0 .67-.453 1.213-1.01 1.213h-52.59c-.556 0-1.008-.543-1.008-1.213v-2.424c0-.67.452-1.213 1.009-1.213h52.59zm20.71-9.7c.512 0 .928.543.928 1.213v2.425c0 .67-.416 1.212-.929 1.212H49.468c-.513 0-.929-.543-.929-1.213v-2.425c0-.67.416-1.212.93-1.212h73.377z"/></g><use fill="#000" filter="url(#prefix__q)" xlink:href="#prefix__r"/><use fill="#FFF" xlink:href="#prefix__r"/><path fill="#F1A06F" d="M283.955 43.65h101.933a4.851 4.851 0 014.853 4.85v12.125a4.851 4.851 0 01-4.853 4.85H283.955a4.852 4.852 0 01-4.854-4.85V48.5a4.852 4.852 0 014.854-4.85z"/><path fill="#F8F9FB" d="M309.438 52.138h50.966c.67 0 1.214.542 1.214 1.212v2.425c0 .67-.543 1.213-1.214 1.213h-50.966c-.67 0-1.213-.543-1.213-1.213V53.35c0-.67.543-1.212 1.213-1.212z" opacity=".3"/></g></g><g mask="url(#prefix__f)"><g transform="translate(19.416 19.4)"><use fill="#000" filter="url(#prefix__s)" xlink:href="#prefix__t"/><use fill="#FFF" xlink:href="#prefix__t"/></g><g transform="translate(35.191 35.162)"><ellipse cx="3.64" cy="3.638" fill="#FF8A84" rx="3.64" ry="3.638"/><ellipse cx="14.562" cy="3.638" fill="#FFCE7A" rx="3.64" ry="3.638"/><ellipse cx="25.483" cy="3.638" fill="#7CC97C" rx="3.64" ry="3.638"/></g><path fill="#F7F9F9" d="M99.506 29.1h243.91a4.852 4.852 0 014.854 4.85v9.7a4.852 4.852 0 01-4.854 4.85H99.506a4.852 4.852 0 01-4.854-4.85v-9.7a4.852 4.852 0 014.854-4.85z"/><g fill="#5BC17F" fill-rule="nonzero" transform="translate(184.45 35.162)"><path d="M4.247 2.88h-.202v-.758c0-.836-.726-1.516-1.618-1.516-.892 0-1.618.68-1.618 1.516v.758H.607c-.335 0-.607.255-.607.568V6.1c0 .314.272.569.607.569h3.64c.335 0 .607-.255.607-.569V3.448c0-.313-.272-.568-.607-.568zm-2.899-.758c0-.557.484-1.01 1.079-1.01s1.079.453 1.079 1.01v.758H1.348v-.758z"/><rect width="70.382" height="4.85" x="9.708" y="1.212" opacity=".2" rx="1"/></g></g></g><text fill="#032128" font-family="HelveticaNeue-Bold, Helvetica Neue" font-size="12" font-weight="bold"><tspan x="67.955" y="159.094">Payments</tspan></text><g transform="translate(347.056 81.237)"><path fill="#032128" d="M2.427 111.55H108a2.426 2.426 0 012.427 2.425v4.85A2.426 2.426 0 01108 121.25H2.427A2.426 2.426 0 010 118.825v-4.85a2.426 2.426 0 012.427-2.425z"/><mask id="prefix__v" fill="#fff"><use xlink:href="#prefix__u"/></mask><use fill="#00AFCC" xlink:href="#prefix__u"/><g fill="#F8F9FB" fill-rule="nonzero" mask="url(#prefix__v)" opacity=".3"><path d="M24.296 14.531v24.27a2.426 2.426 0 01-2.425 2.427h-2.425a2.426 2.426 0 01-2.425-2.427v-24.27a2.424 2.424 0 012.424-2.427h2.425a2.426 2.426 0 012.425 2.427zm68.506-1.214v14.562c0 .67-.543 1.214-1.213 1.214h-2.425c-.67 0-1.212-.544-1.212-1.214V13.317c0-.67.543-1.213 1.212-1.213h2.425c.67 0 1.213.543 1.213 1.213zm0 21.237v27.91c0 .67-.543 1.213-1.213 1.213h-2.425c-.67 0-1.212-.543-1.212-1.213v-27.91c0-.67.543-1.214 1.212-1.214h2.425c.67 0 1.213.543 1.213 1.213z"/></g><ellipse cx="117.708" cy="-3.638" fill="#FFF" mask="url(#prefix__v)" opacity=".2" rx="144.404" ry="144.287"/><ellipse cx="103.146" cy="-44.862" fill="#FFF" mask="url(#prefix__v)" opacity=".2" rx="144.404" ry="144.287"/><path fill="#DEF4F8" d="M47.326 127.313a2.426 2.426 0 110 4.849 2.426 2.426 0 110-4.849zm0-8.488a2.426 2.426 0 110 4.85 2.425 2.425 0 110-4.85zm0-8.487a2.426 2.426 0 110 4.849 2.426 2.426 0 110-4.849zm0-8.488a2.426 2.426 0 110 4.85 2.425 2.425 0 110-4.85zm0-19.4a2.426 2.426 0 110 4.85 2.425 2.425 0 110-4.85zm0-8.487a2.426 2.426 0 110 4.849 2.426 2.426 0 110-4.849zm0-8.488a2.426 2.426 0 110 4.85 2.425 2.425 0 110-4.85zm0-8.487a2.426 2.426 0 11-2.427 2.425 2.425 2.425 0 012.427-2.425zm0-19.4a2.426 2.426 0 11-2.427 2.425 2.425 2.425 0 012.427-2.425zm0-8.488a2.426 2.426 0 110 4.85 2.425 2.425 0 110-4.85zm0-8.488a2.426 2.426 0 110 4.85 2.426 2.426 0 110-4.849zm0-8.487a2.426 2.426 0 110 4.85 2.425 2.425 0 110-4.85z" mask="url(#prefix__v)"/><path fill="#032128" d="M105.573 113.975H4.854v7.275h100.719z" mask="url(#prefix__v)" opacity=".2"/></g></g></svg>